<svg width="39" height="38" viewBox="0 0 39 38" fill="none" xmlns="http://www.w3.org/2000/svg">
<path fill-rule="evenodd" clip-rule="evenodd" d="M0.218262 19.7378C0.7808 19.6668 1.18399 19.5733 1.5891 19.571C6.83241 19.544 10.9218 18.1573 14.2414 15.8785C17.008 13.977 18.9106 11.8457 19.6037 9.33027C20.3544 6.61209 21.3451 3.91869 22.2475 1.21515C22.3281 0.971836 22.4049 0.684582 22.6679 0.516738C23.0385 0.281305 23.6145 -0.0273497 24.0426 0.00193859C24.4496 0.0301004 24.9642 0.422113 25.0966 0.707111C25.2925 1.13066 25.1658 1.60153 25.2176 2.04987C25.5363 4.74665 25.6073 7.4637 26.2563 10.1334C27.1606 13.8553 30.3208 16.8889 35.5218 19.1497C36.2764 19.4775 37.0654 19.8076 37.651 20.2266C38.0907 20.5409 38.5592 21.0524 38.4075 21.379C38.2616 21.6978 37.3976 21.9648 36.7544 22.1315C35.0495 22.5731 33.1968 22.8423 31.5821 23.3684C26.4195 25.048 24.488 28.0095 23.2554 31.1354C22.5854 32.833 22.451 34.6038 22.0728 36.3409C21.923 37.0258 22.0363 37.8278 20.4389 37.9866C19.4309 38.0869 18.9932 37.6284 18.6899 36.4377C18.158 34.3571 17.776 32.254 16.9581 30.2106C16.3207 28.6166 15.3396 27.0362 14.1147 25.5628C11.8204 22.8006 8.03235 21.1515 2.6508 20.9893C1.35293 20.9521 0.241301 20.8879 0.218262 19.7378ZM32.377 20.9172C30.9217 19.9067 29.5105 19.0348 28.3202 18.0695C27.0742 17.059 25.9145 15.9956 24.945 14.8872C24.0445 13.8587 23.4455 12.7401 22.4971 11.341C19.7919 15.0415 16.0615 17.8397 11.1215 19.7907C13.1451 21.1199 15.3185 22.2791 16.9082 23.6669C18.471 25.0299 19.4386 26.6261 20.7634 28.2359C25.2598 22.9843 25.999 22.9775 32.377 20.9172Z" fill="#222222"/>
</svg>
