<svg width="144" height="139" viewBox="0 0 144 139" fill="none" xmlns="http://www.w3.org/2000/svg">
<path fill-rule="evenodd" clip-rule="evenodd" d="M129.439 138.951C128.994 138.881 126.667 138.625 124.27 138.369C114.941 137.368 109.442 136.53 108.267 135.925C107.327 135.459 106.881 134.691 106.881 133.596C106.881 132.339 107.632 131.547 109.254 131.082C110.617 130.686 111.04 130.639 119.1 129.545C122.014 129.149 124.529 128.777 124.716 128.707C124.905 128.637 123.189 127.985 120.91 127.217C110.241 123.678 100.607 118.393 91.9117 111.292C88.5513 108.521 81.854 101.862 79.3631 98.8122C73.9818 92.1534 69.8225 84.6098 66.6971 75.7624C66.0626 74.0396 65.4751 72.6193 65.3811 72.6193C65.2636 72.6193 63.9007 72.7823 62.3497 72.9453C53.0676 73.993 43.2684 71.362 34.1978 65.3551C24.8215 59.162 18.5708 51.9444 10.5575 38.0445C2.54435 24.1686 -1.09802 12.5034 0.288433 5.02966C0.899411 1.60733 2.05087 0.0474854 3.97781 0.000854492C5.29376 -0.0219727 5.38775 0.420593 4.2128 1.02586C3.06133 1.60735 2.66185 2.16599 2.33286 3.77246C0.617424 11.9686 6.25723 26.8457 17.4663 43.6325C23.3176 52.4334 28.417 57.7185 35.6311 62.4914C43.9499 68.0093 52.8091 70.5006 61.2923 69.709C65.1227 69.3597 64.8171 69.6158 64.3236 67.0781C62.3732 57.1364 63.9242 47.0783 68.107 42.3986C73.2533 36.7178 82.136 37.7885 85.1674 44.4707C86.5068 47.4276 86.5538 51.9677 85.3084 55.6696C83.311 61.5135 80.1621 65.7509 75.5797 68.7311C73.9583 69.7789 70.6214 71.3388 70.0104 71.3388C69.4934 71.3388 69.564 71.8742 70.3629 74.1793C72.4779 80.2094 75.6032 86.7053 78.5642 91.1289C83.4049 98.3931 91.6296 106.682 99.3609 112.107C106.011 116.763 113.46 120.605 120.746 123.119C124.012 124.26 130.122 125.913 130.333 125.727C130.38 125.657 129.792 124.749 129.041 123.678C125.022 118.137 122.954 113.131 122.625 108.242C122.461 105.541 122.578 104.679 123.118 105.005C123.236 105.075 123.918 106.286 124.646 107.683C126.526 111.408 131.977 118.486 139.85 127.45C141.401 129.219 142.928 131.198 143.304 131.967C144.832 134.993 143.798 137.531 140.649 138.532C139.709 138.835 138.37 138.951 134.845 138.975C132.33 139.021 129.886 138.998 129.439 138.951ZM137.383 134.109C137.453 134.015 136.983 133.41 136.325 132.758L135.126 131.571L131.296 132.316C129.181 132.712 126.973 133.107 126.384 133.177C125.069 133.364 124.364 133.713 125.21 133.759C125.539 133.759 127.114 133.922 128.735 134.085C131.554 134.388 137.077 134.411 137.383 134.109ZM71.6554 67.0315C76.3552 64.68 79.5981 60.7918 81.478 55.2971C83.781 48.5684 81.384 42.9108 76.1907 42.8642C73.4648 42.8409 71.1149 44.5173 69.7285 47.4741C68.4125 50.2681 67.825 53.1085 67.7075 57.5089C67.59 61.2807 67.731 63.1666 68.3655 66.822L68.6239 68.2654L69.4934 67.9628C69.9869 67.7999 70.9504 67.3807 71.6554 67.0315Z" fill="#1D7D57"/>
</svg>
