<svg width="124" height="88" viewBox="0 0 124 88" fill="none" xmlns="http://www.w3.org/2000/svg">
<path d="M54.5016 3.78713V52.4188L38.3959 84.6159C37.8499 85.5836 37.0679 86.3973 36.1228 86.9815C35.1777 87.5656 34.1002 87.9012 32.9905 87.9569H18.9505C16.8835 87.9569 15.9397 86.4814 16.8835 84.6159L32.8891 52.4188H3.9927C2.99995 52.4185 2.04799 52.0239 1.34613 51.3218C0.644278 50.6197 0.25 49.6676 0.25 48.6748V3.78583C0.250689 2.79331 0.645449 1.84168 1.34751 1.14011C2.04957 0.438532 3.00148 0.0444334 3.994 0.0444336H50.7589C51.7516 0.0444335 52.7037 0.438712 53.4058 1.14057C54.1079 1.84242 54.5026 2.79439 54.5029 3.78713H54.5016ZM123.75 3.78713V52.4188L107.656 84.6159C107.106 85.583 106.321 86.396 105.374 86.9799C104.427 87.5638 103.349 87.8998 102.238 87.9569H88.2119C86.1319 87.9569 85.1998 86.4814 86.1319 84.6159L102.15 52.4188H73.2411C72.7494 52.4188 72.2626 52.322 71.8083 52.1338C71.3541 51.9457 70.9413 51.6699 70.5937 51.3222C70.246 50.9746 69.9702 50.5618 69.7821 50.1076C69.5939 49.6533 69.4971 49.1665 69.4971 48.6748V3.78583C69.4978 2.79331 69.8925 1.84168 70.5946 1.14011C71.2967 0.438532 72.2486 0.0444334 73.2411 0.0444336H120.006C120.999 0.0447782 121.95 0.439208 122.652 1.14103C123.354 1.84284 123.75 2.79461 123.75 3.78713Z" fill="#EFD5C3"/>
</svg>
