<svg width="60" height="60" viewBox="0 0 60 60" fill="none" xmlns="http://www.w3.org/2000/svg">
<g clip-path="url(#clip0_600_719)">
<path d="M56.4037 19.8366C56.3824 19.7152 56.3374 19.5992 56.2712 19.4953C56.2051 19.3913 56.1191 19.3014 56.0182 19.2307C55.9173 19.16 55.8034 19.1099 55.6831 19.0832C55.5628 19.0566 55.4384 19.0539 55.3171 19.0753L50.7027 19.8881C50.5813 19.9094 50.4652 19.9544 50.3612 20.0206C50.2571 20.0868 50.1672 20.1729 50.0965 20.2739C50.0258 20.375 49.9757 20.4889 49.9491 20.6093C49.9225 20.7297 49.9199 20.8542 49.9415 20.9756L50.1421 22.1109L47.5171 22.5694L45.9374 22.3275V8.4375C45.9374 7.44294 45.5423 6.48911 44.8391 5.78585C44.1358 5.08259 43.182 4.6875 42.1874 4.6875H35.6249V2.8125C35.6249 2.06658 35.3286 1.35121 34.8012 0.823762C34.2737 0.296316 33.5583 0 32.8124 0L27.1874 0C26.4415 0 25.7261 0.296316 25.1987 0.823762C24.6712 1.35121 24.3749 2.06658 24.3749 2.8125V4.6875H17.8124C16.8179 4.6875 15.864 5.08259 15.1608 5.78585C14.4575 6.48911 14.0624 7.44294 14.0624 8.4375V22.3303L12.4762 22.5731L9.85867 22.1119L10.0584 20.9756C10.0799 20.8542 10.0773 20.7297 10.0508 20.6093C10.0242 20.4889 9.97406 20.375 9.90335 20.2739C9.83264 20.1729 9.74269 20.0868 9.63866 20.0206C9.53463 19.9544 9.41856 19.9094 9.2971 19.8881L4.68742 19.0753C4.56601 19.0537 4.44154 19.0563 4.32113 19.0829C4.20073 19.1095 4.08675 19.1596 3.98573 19.2303C3.88471 19.301 3.79864 19.391 3.73243 19.495C3.66623 19.599 3.6212 19.7151 3.59992 19.8366L0.0139792 40.1456C-0.0076002 40.267 -0.00501701 40.3915 0.0215808 40.5119C0.0481787 40.6323 0.0982686 40.7463 0.168982 40.8473C0.239695 40.9483 0.329642 41.0344 0.433672 41.1006C0.537702 41.1668 0.65377 41.2118 0.775229 41.2331L5.39054 42.0459C5.51188 42.0674 5.63625 42.0647 5.75655 42.038C5.87685 42.0114 5.99071 41.9613 6.09163 41.8906C6.19254 41.8199 6.27853 41.73 6.34468 41.626C6.41082 41.522 6.45582 41.4061 6.4771 41.2847L6.56242 40.7812L7.33679 40.9181C8.05053 42.4902 9.08891 43.8935 10.3837 45.0356C10.334 45.8821 10.575 46.7202 11.0667 47.411C11.5584 48.1019 12.2714 48.604 13.0874 48.8344C12.6488 49.5628 12.4724 50.4193 12.5874 51.2618C12.7024 52.1042 13.1018 52.8821 13.7196 53.4664C14.3374 54.0506 15.1363 54.4062 15.9838 54.4741C16.8314 54.542 17.6767 54.3182 18.3796 53.8397C18.4728 54.4622 18.723 55.0508 19.1064 55.5499C19.4899 56.0491 19.9942 56.4424 20.5717 56.6929C21.1491 56.9434 21.7809 57.0428 22.4074 56.9817C23.0339 56.9206 23.6345 56.7011 24.1527 56.3438C24.2404 56.9179 24.4618 57.4635 24.799 57.9364C25.1361 58.4094 25.5796 58.7966 26.0938 59.0668C26.608 59.3369 27.1784 59.4826 27.7592 59.4919C28.34 59.5013 28.9148 59.3741 29.4374 59.1206V59.1263L29.8124 59.3756C30.2231 59.6475 30.6833 59.8359 31.1668 59.9299C31.6503 60.0239 32.1476 60.0217 32.6302 59.9235C33.1129 59.8253 33.5714 59.633 33.9798 59.3575C34.3881 59.0821 34.7381 58.7289 35.0099 58.3181C35.4203 57.6932 35.6303 56.958 35.6118 56.2106C35.9159 56.2934 36.2294 56.3369 36.5446 56.34C37.04 56.3415 37.5308 56.2447 37.9885 56.0551C38.4461 55.8655 38.8617 55.587 39.2109 55.2357C39.5602 54.8843 39.8362 54.4672 40.023 54.0083C40.2099 53.5495 40.3038 53.0582 40.2993 52.5628C40.5977 52.6413 40.9048 52.6822 41.2133 52.6847C41.7081 52.6847 42.198 52.5868 42.6547 52.3967C43.1115 52.2065 43.5261 51.9278 43.8747 51.5767C44.2232 51.2256 44.4989 50.809 44.6857 50.3509C44.8726 49.8928 44.9669 49.4022 44.9633 48.9075C45.5349 49.0564 46.1336 49.0671 46.7101 48.9386C47.2865 48.81 47.8241 48.546 48.2782 48.1684C48.7323 47.7908 49.0899 47.3105 49.3215 46.7671C49.553 46.2238 49.6518 45.6332 49.6096 45.0441C50.9056 43.9001 51.9441 42.4941 52.6565 40.9191L53.4374 40.7859L53.5255 41.2847C53.5468 41.4061 53.5918 41.5222 53.6581 41.6262C53.7243 41.7303 53.8103 41.8202 53.9114 41.8909C54.0124 41.9616 54.1263 42.0117 54.2468 42.0383C54.3672 42.0649 54.4916 42.0675 54.613 42.0459L59.2274 41.2331C59.3489 41.2118 59.4649 41.1668 59.569 41.1006C59.673 41.0344 59.7629 40.9483 59.8337 40.8473C59.9044 40.7463 59.9545 40.6323 59.9811 40.5119C60.0077 40.3915 60.0102 40.267 59.9887 40.1456L56.4037 19.8366ZM26.2499 2.8125C26.2499 2.56386 26.3487 2.3254 26.5245 2.14959C26.7003 1.97377 26.9388 1.875 27.1874 1.875H32.8124C33.0611 1.875 33.2995 1.97377 33.4753 2.14959C33.6511 2.3254 33.7499 2.56386 33.7499 2.8125V4.6875H26.2499V2.8125ZM15.9374 8.4375C15.9374 7.94022 16.135 7.46331 16.4866 7.11167C16.8382 6.76004 17.3151 6.5625 17.8124 6.5625H42.1874C42.6847 6.5625 43.1616 6.76004 43.5132 7.11167C43.8649 7.46331 44.0624 7.94022 44.0624 8.4375V11.25C44.0624 11.9959 43.7661 12.7113 43.2387 13.2387C42.7112 13.7662 41.9958 14.0625 41.2499 14.0625V13.125C41.2499 12.8764 41.1511 12.6379 40.9753 12.4621C40.7995 12.2863 40.5611 12.1875 40.3124 12.1875H36.5624C36.3138 12.1875 36.0753 12.2863 35.8995 12.4621C35.7237 12.6379 35.6249 12.8764 35.6249 13.125V14.0625H24.3749V13.125C24.3749 12.8764 24.2761 12.6379 24.1003 12.4621C23.9245 12.2863 23.6861 12.1875 23.4374 12.1875H19.6874C19.4388 12.1875 19.2003 12.2863 19.0245 12.4621C18.8487 12.6379 18.7499 12.8764 18.7499 13.125V14.0625C18.004 14.0625 17.2886 13.7662 16.7612 13.2387C16.2337 12.7113 15.9374 11.9959 15.9374 11.25V8.4375ZM39.3749 14.0625V15.9375H37.4999V14.0625H39.3749ZM22.4999 14.0625V15.9375H20.6249V14.0625H22.4999ZM15.9374 14.9756C16.744 15.5961 17.7323 15.9341 18.7499 15.9375V16.875C18.7499 17.1236 18.8487 17.3621 19.0245 17.5379C19.2003 17.7137 19.4388 17.8125 19.6874 17.8125H23.4374C23.6861 17.8125 23.9245 17.7137 24.1003 17.5379C24.2761 17.3621 24.3749 17.1236 24.3749 16.875V15.9375H35.6249V16.875C35.6249 17.1236 35.7237 17.3621 35.8995 17.5379C36.0753 17.7137 36.3138 17.8125 36.5624 17.8125H40.3124C40.5611 17.8125 40.7995 17.7137 40.9753 17.5379C41.1511 17.3621 41.2499 17.1236 41.2499 16.875V15.9375C42.2675 15.9341 43.2558 15.5961 44.0624 14.9756V22.0406L36.9374 20.9513C35.3881 20.7179 33.8044 20.9188 32.3624 21.5316L29.9999 22.5384L27.644 21.5344C26.1997 20.9189 24.6124 20.7186 23.0605 20.9559L15.9374 22.0444V14.9756ZM4.79335 40.0378L2.02398 39.5484L5.27898 21.0797L8.04929 21.5681L4.79335 40.0378ZM12.6843 46.4344C12.3648 46.0535 12.2096 45.5614 12.2528 45.0662C12.2961 44.5709 12.5342 44.1131 12.9149 43.7934L16.5065 40.7812C16.6951 40.6229 16.913 40.5033 17.1479 40.4292C17.3827 40.3551 17.6299 40.328 17.8752 40.3494C18.1205 40.3708 18.3592 40.4404 18.5777 40.554C18.7961 40.6677 18.99 40.8233 19.1484 41.0119C19.3067 41.2005 19.4263 41.4184 19.5004 41.6533C19.5745 41.8881 19.6016 42.1353 19.5802 42.3806C19.5588 42.6259 19.4892 42.8646 19.3756 43.083C19.2619 43.3015 19.1063 43.4954 18.9177 43.6537L15.3262 46.6678C15.1374 46.826 14.9193 46.9454 14.6844 47.0193C14.4494 47.0932 14.2022 47.1201 13.9569 47.0984C13.7115 47.0767 13.4729 47.0069 13.2545 46.893C13.0362 46.779 12.8424 46.6232 12.6843 46.4344ZM17.5049 52.1803C17.3162 52.3386 17.0982 52.4583 16.8633 52.5323C16.6284 52.6064 16.3812 52.6335 16.1359 52.612C15.8905 52.5906 15.6518 52.521 15.4333 52.4073C15.2148 52.2935 15.0209 52.1379 14.8626 51.9492C14.7042 51.7605 14.5846 51.5425 14.5106 51.3076C14.4365 51.0727 14.4094 50.8256 14.4309 50.5802C14.4523 50.3348 14.5219 50.0961 14.6356 49.8776C14.7494 49.6591 14.905 49.4652 15.0937 49.3069L19.4062 45.6909C19.7891 45.3912 20.2735 45.252 20.7572 45.3026C21.2409 45.3533 21.6859 45.5899 21.9984 45.9625C22.311 46.3351 22.4665 46.8146 22.4322 47.2997C22.3979 47.7848 22.1764 48.2376 21.8146 48.5625L17.5049 52.1803ZM23.2752 54.6816C23.0866 54.8398 22.8686 54.9594 22.6337 55.0334C22.3988 55.1074 22.1517 55.1344 21.9063 55.1129C21.661 55.0914 21.4223 55.0218 21.2039 54.9081C20.9855 54.7943 20.7916 54.6387 20.6334 54.45C20.4751 54.2613 20.3555 54.0433 20.2815 53.8085C20.2075 53.5736 20.1805 53.3264 20.202 53.0811C20.2235 52.8358 20.2931 52.5971 20.4068 52.3787C20.5206 52.1603 20.6762 51.9664 20.8649 51.8081L23.7384 49.3978C24.12 49.0845 24.6098 48.9344 25.1015 48.9801C25.5932 49.0258 26.0469 49.2636 26.3643 49.6418C26.6817 50.0201 26.8371 50.5083 26.7967 51.0004C26.7563 51.4925 26.5235 51.9489 26.1487 52.2703L23.2752 54.6816ZM29.0446 57.1875C28.663 57.5027 28.1724 57.6542 27.6796 57.6091C27.1867 57.5639 26.7317 57.3258 26.4138 56.9466C26.0958 56.5674 25.9407 56.0778 25.9821 55.5847C26.0236 55.0916 26.2584 54.6348 26.6352 54.3141L29.5077 51.9037C29.6963 51.7454 29.9143 51.6258 30.1491 51.5516C30.384 51.4775 30.6311 51.4504 30.8764 51.4718C31.1218 51.4933 31.3605 51.5628 31.5789 51.6765C31.7974 51.7901 31.9913 51.9457 32.1496 52.1344C32.3079 52.323 32.4275 52.541 32.5015 52.7759C32.5755 53.0108 32.6026 53.2579 32.5811 53.5033C32.5596 53.7486 32.4899 53.9873 32.3762 54.2057C32.2624 54.4241 32.1067 54.618 31.918 54.7763L29.0446 57.1875ZM33.4443 57.2869C33.1958 57.6657 32.8174 57.9405 32.3804 58.0597C31.9433 58.1788 31.4778 58.134 31.0715 57.9338L33.1237 56.2125C33.3178 56.0502 33.4949 55.8687 33.6524 55.6706C33.7412 55.9374 33.7685 56.2209 33.7325 56.4997C33.6965 56.7786 33.5979 57.0457 33.4443 57.2812V57.2869ZM47.4496 46.3125C47.3137 46.5179 47.1387 46.6945 46.9345 46.8322C46.7304 46.9699 46.5011 47.0661 46.2598 47.1152C46.0184 47.1643 45.7698 47.1654 45.528 47.1184C45.2863 47.0714 45.0562 46.9772 44.8508 46.8413L37.0312 41.6691C36.9287 41.5948 36.8122 41.542 36.6887 41.514C36.5653 41.4859 36.4374 41.4832 36.3129 41.5059C36.1883 41.5286 36.0697 41.5763 35.9641 41.6461C35.8585 41.7159 35.7681 41.8064 35.6984 41.9121C35.6287 42.0177 35.5811 42.1364 35.5586 42.261C35.536 42.3856 35.5389 42.5134 35.567 42.6368C35.5952 42.7603 35.6481 42.8767 35.7225 42.9791C35.7969 43.0815 35.8913 43.1678 35.9999 43.2328L42.2568 47.3738C42.6713 47.6486 42.9596 48.0769 43.0583 48.5643C43.157 49.0518 43.0581 49.5585 42.7832 49.973C42.5083 50.3875 42.0801 50.6758 41.5926 50.7745C41.1052 50.8732 40.5985 50.7742 40.184 50.4994L33.928 46.3594C33.8238 46.2895 33.7064 46.2417 33.583 46.2188C33.3701 46.1786 33.1499 46.2135 32.9598 46.3174C32.7697 46.4213 32.6215 46.5878 32.5403 46.7886C32.459 46.9895 32.4499 47.2123 32.5144 47.4191C32.5789 47.6259 32.713 47.804 32.894 47.9231L37.5815 51.0291C37.9934 51.3049 38.2794 51.7327 38.3768 52.2188C38.4741 52.7049 38.375 53.2098 38.1011 53.623C37.8272 54.0363 37.4008 54.3242 36.9151 54.4238C36.4295 54.5235 35.9241 54.4267 35.5096 54.1547L34.4408 53.4478C34.4667 52.7599 34.301 52.0784 33.9623 51.4792C33.6236 50.8799 33.1251 50.3865 32.5225 50.0539C31.9198 49.7212 31.2367 49.5625 30.5491 49.5953C29.8615 49.6281 29.1966 49.8512 28.6284 50.2397C28.5557 49.7523 28.3862 49.2843 28.1298 48.8634C27.8735 48.4425 27.5356 48.0771 27.1359 47.7888C26.7362 47.5005 26.2829 47.2951 25.8026 47.1847C25.3223 47.0743 24.8248 47.0611 24.3393 47.1459C24.3557 46.2586 24.0504 45.3952 23.4799 44.7154C22.9093 44.0356 22.112 43.5852 21.2352 43.4475C21.5096 42.6734 21.5215 41.8306 21.269 41.0491C21.0166 40.2676 20.5138 39.591 19.8384 39.1238C19.1631 38.6565 18.3527 38.4247 17.5324 38.464C16.7121 38.5033 15.9275 38.8116 15.2999 39.3413L11.7084 42.3553C11.4573 42.5715 11.2365 42.8206 11.0521 43.0959C10.1139 42.1286 9.37429 40.9868 8.87523 39.735C8.81612 39.5861 8.71986 39.4549 8.59562 39.3538C8.47138 39.2527 8.32332 39.1851 8.16554 39.1575L6.8896 38.9325L9.53054 23.9559L12.2999 24.4444C12.4007 24.4617 12.5038 24.4617 12.6046 24.4444L23.3437 22.8094C24.5499 22.6244 25.7838 22.7802 26.9062 23.2594L27.6037 23.5566L23.8602 25.1503C23.0192 25.51 22.3021 26.1084 21.7977 26.8716L18.2699 32.19C17.8618 32.8147 17.7169 33.5753 17.8668 34.3062C18.0168 35.0372 18.4494 35.6793 19.0705 36.0928C20.1078 36.7763 21.3737 37.0206 22.5909 36.7723C23.808 36.524 24.877 35.8033 25.5637 34.7681L27.1734 32.3438L30.5962 31.6434C30.9651 32.7808 31.5917 33.8176 32.4273 34.673C33.2628 35.5284 34.2846 36.1792 35.413 36.5747C35.813 36.7173 36.2232 36.8292 36.6402 36.9094L46.9199 43.7156C47.3343 43.9899 47.6229 44.4175 47.7222 44.9044C47.8215 45.3914 47.7235 45.8978 47.4496 46.3125ZM51.8324 39.1594C51.674 39.187 51.5253 39.2548 51.4007 39.3565C51.2761 39.4581 51.1797 39.5901 51.1208 39.7397C50.6215 40.9973 49.8793 42.1441 48.9365 43.1147C48.6725 42.7348 48.3395 42.4079 47.9549 42.1509L39.9862 36.8794C41.0217 36.6724 42.0081 36.2696 42.8924 35.6925L44.3652 34.7269C44.5731 34.5901 44.7181 34.3764 44.7684 34.1327C44.8187 33.889 44.7701 33.6354 44.6334 33.4275C44.4966 33.2196 44.2829 33.0746 44.0392 33.0243C43.7955 32.974 43.5418 33.0226 43.334 33.1594L41.8659 34.125C41.0167 34.6827 40.0494 35.035 39.0405 35.1539C38.0316 35.2729 37.0089 35.1552 36.0534 34.8103C35.174 34.5039 34.3796 33.994 33.7349 33.3221C33.0901 32.6502 32.6134 31.8353 32.3437 30.9441C32.2852 30.7515 32.2357 30.5563 32.1955 30.3591C32.1448 30.1164 32 29.9038 31.7929 29.7676C31.5857 29.6315 31.3331 29.5829 31.0902 29.6325L26.4205 30.5887C26.1776 30.6384 25.9642 30.7824 25.8271 30.9891L24.0093 33.735C23.5971 34.3556 22.9559 34.7878 22.2259 34.937C21.4959 35.0861 20.7366 34.9401 20.114 34.5309C19.9062 34.3926 19.7614 34.1779 19.7108 33.9334C19.6603 33.6889 19.7081 33.4344 19.844 33.225L23.3699 27.9075C23.6723 27.4509 24.1014 27.0925 24.6046 26.8762L33.0993 23.2575C34.2223 22.7808 35.4554 22.6247 36.6618 22.8066L47.3962 24.4472C47.4965 24.4627 47.5986 24.4627 47.699 24.4472L50.474 23.9616L53.1093 38.9381L51.8324 39.1594ZM55.2074 40.0359L51.9515 21.5672L54.7218 21.0787L57.9768 39.5475L55.2074 40.0359Z" fill="#1D7D57"/>
</g>
<defs>
<clipPath id="clip0_600_719">
<rect width="60" height="60" fill="white"/>
</clipPath>
</defs>
</svg>
