<svg width="60" height="60" viewBox="0 0 60 60" fill="none" xmlns="http://www.w3.org/2000/svg">
<g clip-path="url(#clip0_600_727)">
<path d="M51.768 44.0001C52.086 42.3141 52.078 40.5831 51.744 38.9001L56.324 27.8471C56.3245 27.8398 56.3245 27.8324 56.324 27.8251C57.0662 25.7932 58.1539 23.9047 59.539 22.2431C59.884 21.8791 60.022 21.3661 59.908 20.8781L58.03 12.7681C58.0077 12.6833 57.974 12.6019 57.93 12.5261C57.922 12.5111 57.919 12.4931 57.911 12.4791C57.903 12.4651 57.868 12.4311 57.848 12.4051C57.8071 12.3452 57.7598 12.2899 57.707 12.2401C57.6722 12.2156 57.6358 12.1936 57.598 12.1741C57.5493 12.1382 57.4974 12.1068 57.443 12.0801C57.3676 12.0516 57.2891 12.0325 57.209 12.0231C57.186 12.0231 57.166 12.0081 57.143 12.0061C56.9514 11.9933 56.7601 12.036 56.592 12.1291C56.577 12.1371 56.559 12.1401 56.544 12.1491H56.534L49.473 16.5561C49.2625 16.6865 49.0878 16.8671 48.9645 17.0819C48.8413 17.2966 48.7734 17.5386 48.767 17.7861C48.5709 19.9453 48.0021 22.0541 47.086 24.0191V24.0301L44.797 29.5631C43.6736 28.9659 42.4708 28.5315 41.225 28.2731C41.697 25.0181 41.87 21.7271 41.743 18.4401C42.6647 17.3343 43.3585 16.0571 43.7844 14.6821C44.2104 13.307 44.3601 11.8613 44.225 10.4281C43.6 4.60012 38.333 0.391117 38.108 0.214117C37.9431 0.0842624 37.7416 0.00958403 37.5319 0.000660422C37.3222 -0.00826319 37.115 0.0490204 36.9396 0.164396C36.7643 0.279773 36.6297 0.447392 36.5549 0.643509C36.4802 0.839626 36.469 1.0543 36.523 1.25712C37.038 3.19112 36.592 5.23212 32.788 9.42912C31.9524 10.236 31.3758 11.2733 31.1317 12.4089C30.8875 13.5445 30.9868 14.7271 31.417 15.8061C31.7534 16.6502 32.2354 17.4287 32.841 18.1061C32.6063 19.5774 32.4185 21.0558 32.278 22.5391C32.0525 24.896 31.9943 27.266 32.104 29.6311C31.2119 30.1148 30.3767 30.6967 29.614 31.3661L24.764 10.6261C24.764 10.6051 24.744 10.5901 24.738 10.5711C24.7217 10.5044 24.6983 10.4397 24.668 10.3781L19.714 1.22912C19.4728 0.783649 19.0919 0.429856 18.6298 0.222256C18.1677 0.0146561 17.6502 -0.0352294 17.157 0.0802871C16.6638 0.195804 16.2222 0.470311 15.9004 0.861508C15.5786 1.25271 15.3943 1.73888 15.376 2.24512L15 12.6401C15 12.7151 15.009 12.7901 15.025 12.8631V12.9081L19.973 34.0251C19.193 34.0591 18.418 34.1751 17.661 34.3701L12.218 21.2251C12.0081 20.7419 11.6179 20.3597 11.1303 20.1601C10.6428 19.9604 10.0966 19.959 9.60802 20.1561L1.28902 23.6001C0.799944 23.8043 0.411525 24.1937 0.208606 24.6833C0.00568743 25.1728 0.00475882 25.7228 0.206023 26.2131L7.58802 44.0211C5.50741 44.1304 3.55163 45.0475 2.13713 46.5772C0.722633 48.1069 -0.038836 50.1284 0.0148662 52.2112C0.0685684 54.294 0.9332 56.2735 2.42465 57.7283C3.9161 59.1831 5.91655 59.9983 8.00002 60.0001H52C53.0506 59.9849 54.0879 59.7629 55.0527 59.3468C56.0174 58.9307 56.8908 58.3286 57.6229 57.575C58.355 56.8213 58.9315 55.9309 59.3195 54.9544C59.7074 53.978 59.8993 52.9347 59.884 51.8841C59.8688 50.8335 59.6468 49.7963 59.2307 48.8315C58.8146 47.8667 58.2125 46.9933 57.4589 46.2612C56.7052 45.5291 55.8148 44.9527 54.8383 44.5647C53.8619 44.1767 52.8186 43.9849 51.768 44.0001ZM50.749 18.1161L54.941 15.5001L53.457 19.0841C53.3554 19.3292 53.3554 19.6046 53.4568 19.8497C53.5583 20.0948 53.753 20.2895 53.998 20.3911C54.2431 20.4927 54.5185 20.4928 54.7636 20.3913C55.0087 20.2898 55.2034 20.0952 55.305 19.8501L56.789 16.2661L57.9 21.0791C56.7113 22.5293 55.7349 24.1411 55 25.8661C54.4843 26.1052 53.9247 26.2347 53.3564 26.2466C52.7881 26.2585 52.2236 26.1525 51.6983 25.9353C51.1731 25.718 50.6985 25.3943 50.3047 24.9844C49.9108 24.5746 49.6062 24.0876 49.41 23.5541C50.1123 21.8142 50.5632 19.9832 50.749 18.1161ZM48.449 25.9671C49.1106 26.7759 49.9691 27.401 50.942 27.7821C51.7154 28.1148 52.5472 28.2902 53.389 28.2981C53.5916 28.2974 53.7939 28.285 53.995 28.2611L50.804 35.9611C49.8485 33.8544 48.3704 32.0269 46.51 30.6521L48.449 25.9671ZM34.749 18.8251L39.773 19.1321C39.804 20.0661 39.793 21.0321 39.762 22.0131C38.0884 22.1327 36.4064 22.0515 34.752 21.7711C34.626 21.7531 34.503 21.7391 34.378 21.7221C34.478 20.7801 34.6 19.8261 34.747 18.8251H34.749ZM34.272 10.7721C36.927 7.84312 38.303 5.59012 38.623 3.47212C40.5314 5.43566 41.7912 7.93767 42.232 10.6401C42.442 12.9927 41.7146 15.3331 40.208 17.1521C38.233 17.0321 36.279 16.9121 34.347 16.7921C33.9362 16.4081 33.6073 15.9449 33.38 15.4304C33.1528 14.916 33.032 14.3609 33.0248 13.7985C33.0176 13.2362 33.1242 12.6782 33.3382 12.1581C33.5522 11.638 33.8691 11.1666 34.27 10.7721H34.272ZM34.196 23.7151L34.486 23.7531C35.775 23.9531 37.076 24.0631 38.379 24.0841C38.793 24.0841 39.229 24.0511 39.666 24.0171C39.5661 25.3614 39.4231 26.7021 39.237 28.0371C38.99 28.0241 38.748 28.0001 38.5 28.0001C36.99 28.0031 35.492 28.2601 34.068 28.7631C34.0219 27.0794 34.064 25.3944 34.194 23.7151H34.196ZM26.461 35.4091L23.6 23.2221C23.5357 22.968 23.3742 22.7492 23.1502 22.613C22.9263 22.4768 22.6578 22.4339 22.4025 22.4937C22.1473 22.5535 21.9257 22.7111 21.7855 22.9326C21.6454 23.1542 21.5978 23.4219 21.653 23.6781L24.224 34.6471C23.5171 34.3943 22.7869 34.2124 22.044 34.1041L17.655 15.3741C18.27 15.6541 18.937 15.7991 19.613 15.8001C19.676 15.8001 19.743 15.7911 19.807 15.7881L20.514 18.8071C20.542 18.9369 20.5956 19.0599 20.6716 19.1688C20.7476 19.2777 20.8446 19.3704 20.9568 19.4414C21.0691 19.5124 21.1943 19.5604 21.3253 19.5824C21.4562 19.6045 21.5903 19.6003 21.7196 19.57C21.8489 19.5397 21.9709 19.484 22.0784 19.406C22.186 19.3281 22.2769 19.2295 22.3459 19.116C22.4149 19.0026 22.4607 18.8765 22.4804 18.7452C22.5002 18.6138 22.4936 18.4799 22.461 18.3511L21.753 15.3301C22.4315 15.0298 23.0299 14.5742 23.5 14.0001L27.962 33.0791C27.3826 33.8019 26.8796 34.5827 26.461 35.4091ZM20.351 13.7091C19.7248 13.8306 19.0769 13.7691 18.4848 13.5319C17.8926 13.2948 17.3813 12.8922 17.012 12.3721L17.139 8.85012C17.487 8.91512 17.84 8.94812 18.194 8.95012C18.536 8.95112 18.877 8.91412 19.21 8.83712C19.8846 8.65995 20.5157 8.34614 21.064 7.91512L22.748 11.0231C22.6498 11.6544 22.3713 12.2439 21.9461 12.7208C21.5209 13.1976 20.967 13.5415 20.351 13.7111V13.7091ZM17.612 2.02712C17.6783 2.01176 17.7478 2.0185 17.8099 2.0463C17.872 2.07411 17.9233 2.12145 17.956 2.18112L20.1 6.14612C19.713 6.49612 19.251 6.75212 18.75 6.89612C18.2375 6.99018 17.7103 6.96521 17.209 6.82312L17.372 2.31712C17.3747 2.24914 17.3996 2.18392 17.443 2.13152C17.4863 2.07911 17.5457 2.04243 17.612 2.02712ZM10.375 22.0001L11.139 23.8461L7.43902 25.3781C7.20068 25.4843 7.01327 25.6794 6.91679 25.9218C6.82031 26.1643 6.82241 26.4348 6.92264 26.6757C7.02286 26.9166 7.21327 27.1088 7.45324 27.2113C7.6932 27.3137 7.96371 27.3183 8.20702 27.2241L11.907 25.6911L12.672 27.5391L10.821 28.3061C10.576 28.4077 10.3813 28.6025 10.2798 28.8476C10.1784 29.0927 10.1784 29.3681 10.28 29.6131C10.3816 29.8582 10.5764 30.0529 10.8215 30.1543C11.0666 30.2558 11.342 30.2557 11.587 30.1541L13.438 29.3871L14.203 31.2351L10.5 32.7701C10.3787 32.8204 10.2684 32.8941 10.1756 32.987C10.0827 33.0799 10.0091 33.1902 9.95883 33.3116C9.9086 33.4329 9.88276 33.563 9.88279 33.6944C9.88282 33.8257 9.90873 33.9558 9.95902 34.0771C10.0093 34.1985 10.083 34.3087 10.1759 34.4016C10.2688 34.4944 10.3791 34.5681 10.5005 34.6183C10.6218 34.6685 10.7519 34.6944 10.8833 34.6944C11.0146 34.6943 11.1447 34.6684 11.266 34.6181L14.966 33.0861L15.775 35.0391C14.167 35.7731 12.7478 36.8646 11.6256 38.2304C10.5035 39.5962 9.70808 41.2002 9.30002 42.9201L2.05202 25.4441L10.375 22.0001ZM52 58.0001H8.00002C7.13936 57.9996 6.28888 57.8139 5.50632 57.4556C4.72376 57.0974 4.02744 56.5749 3.4646 55.9238C2.90177 55.2727 2.48561 54.5081 2.24437 53.6819C2.00312 52.8558 1.94244 51.9874 2.06644 51.1357C2.19043 50.284 2.49621 49.469 2.96302 48.7459C3.42982 48.0228 4.04672 47.4086 4.77185 46.945C5.49698 46.4814 6.31336 46.1792 7.16559 46.059C8.01781 45.9387 8.88593 46.0032 9.71102 46.2481C9.85893 46.2928 10.0152 46.3026 10.1675 46.2767C10.3198 46.2509 10.4641 46.1901 10.589 46.0991C10.7139 46.0081 10.816 45.8895 10.8873 45.7524C10.9586 45.6153 10.9972 45.4636 11 45.3091C11.0349 43.5611 11.5515 41.8566 12.4929 40.3834C13.4343 38.9101 14.7641 37.7252 16.3357 36.9592C17.9073 36.1931 19.6598 35.8756 21.4002 36.0416C23.1407 36.2077 24.8016 36.8508 26.2 37.9001C26.3243 37.9926 26.4684 38.055 26.6209 38.0823C26.7734 38.1096 26.9301 38.1011 27.0788 38.0574C27.2274 38.0138 27.3639 37.9362 27.4774 37.8308C27.591 37.7254 27.6785 37.5951 27.733 37.4501C28.6797 34.9271 30.4823 32.8167 32.8263 31.4872C35.1702 30.1577 37.9067 29.6935 40.5579 30.1757C43.2092 30.658 45.6069 32.0559 47.3326 34.1256C49.0583 36.1954 50.0024 38.8054 50 41.5001C50.002 42.6438 49.8317 43.7812 49.495 44.8741C49.4434 45.0412 49.4365 45.2189 49.475 45.3895C49.5135 45.5602 49.596 45.7177 49.7144 45.8464C49.8328 45.9751 49.9829 46.0705 50.1497 46.1231C50.3165 46.1757 50.4942 46.1837 50.665 46.1461C51.1035 46.0496 51.5511 46.0007 52 46.0001C53.5913 46.0001 55.1174 46.6323 56.2427 47.7575C57.3679 48.8827 58 50.4088 58 52.0001C58 53.5914 57.3679 55.1175 56.2427 56.2428C55.1174 57.368 53.5913 58.0001 52 58.0001Z" fill="white"/>
<path d="M38.685 15.7C38.8398 15.7006 38.9927 15.6652 39.1315 15.5967C39.2703 15.5281 39.3913 15.4283 39.485 15.305C40.1025 14.4693 40.5396 13.5143 40.7685 12.5007C40.9975 11.4871 41.0133 10.437 40.815 9.41701C40.7837 9.28747 40.7268 9.1655 40.6476 9.05827C40.5685 8.95104 40.4687 8.86071 40.3541 8.79259C40.2396 8.72447 40.1126 8.67994 39.9806 8.66161C39.8486 8.64327 39.7142 8.65151 39.5855 8.68584C39.4567 8.72017 39.3361 8.77989 39.2307 8.8615C39.1253 8.9431 39.0373 9.04495 38.9719 9.16105C38.9065 9.27715 38.8649 9.40516 38.8496 9.53755C38.8343 9.66995 38.8457 9.80406 38.883 9.93201C39.0015 10.6575 38.9749 11.3993 38.8046 12.1144C38.6343 12.8296 38.3238 13.5038 37.891 14.098C37.7796 14.2466 37.7117 14.4232 37.695 14.6082C37.6784 14.7932 37.7135 14.9791 37.7966 15.1452C37.8796 15.3113 38.0073 15.451 38.1653 15.5487C38.3232 15.6463 38.5053 15.698 38.691 15.698L38.685 15.7ZM37.37 46C36.6264 46.0023 35.893 46.1733 35.225 46.5C34.356 45.3109 33.0801 44.483 31.6401 44.1739C30.2002 43.8647 28.6968 44.096 27.4164 44.8236C26.1359 45.5513 25.1678 46.7244 24.6964 48.1197C24.225 49.515 24.2832 51.0349 24.86 52.39C24.964 52.634 25.1606 52.8267 25.4066 52.9257C25.5285 52.9748 25.6588 52.9993 25.7901 52.998C25.9214 52.9967 26.0512 52.9695 26.172 52.918C26.2928 52.8665 26.4023 52.7918 26.4942 52.698C26.5862 52.6042 26.6587 52.4932 26.7077 52.3714C26.7568 52.2495 26.7813 52.1192 26.78 51.9879C26.7787 51.8566 26.7515 51.7268 26.7 51.606C26.4823 51.0986 26.37 50.5522 26.37 50C26.37 48.9391 26.7914 47.9217 27.5416 47.1716C28.2917 46.4214 29.3091 46 30.37 46C31.1297 45.9962 31.8745 46.2111 32.5154 46.6189C33.1564 47.0267 33.6665 47.6103 33.985 48.3C34.007 48.333 34.03 48.364 34.055 48.394C34.071 48.428 34.088 48.462 34.108 48.494C34.126 48.516 34.152 48.526 34.172 48.547C34.2189 48.5957 34.2709 48.6393 34.327 48.677C34.377 48.715 34.431 48.749 34.487 48.777C34.5451 48.8014 34.6054 48.8201 34.667 48.833C34.7285 48.8492 34.7915 48.8589 34.855 48.862C34.985 48.861 35.114 48.839 35.237 48.798C35.2637 48.7931 35.29 48.7868 35.316 48.779C35.3485 48.758 35.3795 48.735 35.409 48.71C35.445 48.694 35.4801 48.676 35.514 48.656C36.0393 48.2312 36.6945 47.9996 37.37 48C37.9426 48.0009 38.5031 48.1657 38.985 48.475C39.467 48.7842 39.8504 49.2249 40.09 49.745C40.2001 49.9864 40.4015 50.1741 40.65 50.2669C40.8985 50.3598 41.1737 50.3501 41.415 50.24C41.6563 50.1299 41.8441 49.9285 41.9369 49.68C42.0297 49.4315 42.0201 49.1564 41.91 48.915C41.5112 48.0458 40.8716 47.3093 40.0669 46.7926C39.2622 46.2759 38.3263 46.0009 37.37 46ZM17.684 39.051C17.533 39.1 14 40.322 14 44C14 44.2652 14.1054 44.5196 14.2929 44.7071C14.4804 44.8947 14.7348 45 15 45C15.2652 45 15.5196 44.8947 15.7071 44.7071C15.8946 44.5196 16 44.2652 16 44C16.0399 43.318 16.2821 42.6634 16.6957 42.1196C17.1092 41.5758 17.6754 41.1676 18.322 40.947C18.4468 40.9051 18.562 40.8391 18.6613 40.7526C18.7605 40.6662 18.8417 40.561 18.9003 40.4432C18.9589 40.3254 18.9937 40.1971 19.0028 40.0658C19.0118 39.9345 18.9949 39.8028 18.953 39.678C18.9111 39.5533 18.8451 39.438 18.7586 39.3387C18.6722 39.2395 18.567 39.1583 18.4492 39.0997C18.3313 39.0411 18.2031 39.0063 18.0718 38.9972C17.9405 38.9882 17.8088 39.0051 17.684 39.047V39.051ZM31.757 37.97C32.0141 38.0341 32.2862 37.9936 32.5134 37.8573C32.7407 37.721 32.9045 37.5 32.969 37.243C33.1929 36.3346 33.7093 35.525 34.4386 34.939C35.1679 34.353 36.0697 34.0231 37.005 34C37.2702 33.9993 37.5243 33.8934 37.7114 33.7053C37.8984 33.5173 38.0032 33.2627 38.0025 32.9975C38.0018 32.7323 37.8958 32.4782 37.7078 32.2911C37.5198 32.1041 37.2652 31.9993 37 32C35.6182 32.0184 34.2817 32.4957 33.2009 33.3569C32.1202 34.2181 31.3564 35.4142 31.03 36.757C30.9656 37.0143 31.006 37.2866 31.1423 37.5141C31.2786 37.7415 31.4997 37.9056 31.757 37.97Z" fill="white"/>
</g>
<defs>
<clipPath id="clip0_600_727">
<rect width="60" height="60" fill="white"/>
</clipPath>
</defs>
</svg>
