<svg width="60" height="60" viewBox="0 0 60 60" fill="none" xmlns="http://www.w3.org/2000/svg">
<g clip-path="url(#clip0_600_709)">
<path d="M49.8635 4.81348C45.2791 4.81348 41.6567 8.49239 41.6567 13.0769C41.6567 17.6614 45.3357 21.2837 49.8635 21.2837C54.3914 21.2837 58.127 17.6048 58.127 13.0203C58.127 8.43579 54.448 4.81348 49.8635 4.81348ZM49.8635 19.4725C46.2978 19.4725 43.4113 16.586 43.4113 13.0203C43.4113 9.45457 46.3544 6.62463 49.8635 6.62463C53.4293 6.62463 56.3158 9.51117 56.3158 13.0769C56.3158 16.6426 53.4293 19.4725 49.8635 19.4725Z" fill="white"/>
<path d="M52.4669 14.322C52.4104 14.1522 52.4104 14.039 52.2972 13.8692C52.2406 13.756 52.184 13.5862 52.0708 13.473C51.9576 13.3598 51.901 13.2466 51.7878 13.1334C51.6746 13.0202 51.5614 12.907 51.3916 12.8504C51.2784 12.7372 51.1086 12.6806 50.9954 12.624C50.8256 12.5674 50.7124 12.4542 50.5426 12.3976C50.3728 12.341 50.203 12.2844 50.0898 12.2278C50.0332 12.2278 49.92 12.1712 49.8634 12.1147C49.8068 12.0581 49.6936 12.0581 49.637 12.0015C49.5804 11.9449 49.4672 11.9449 49.4106 11.8883L49.2408 11.7185C49.1842 11.6619 49.1276 11.6053 49.1276 11.4921C49.071 11.4355 49.071 11.3223 49.071 11.2657V10.9827C49.071 10.9261 49.1276 10.8129 49.1276 10.7563C49.1842 10.6997 49.1842 10.5865 49.2408 10.5299L49.4106 10.3601C49.4672 10.3035 49.5804 10.2469 49.6936 10.2469C49.8068 10.1903 49.8634 10.1903 49.9766 10.1903H50.3162C50.4294 10.1903 50.486 10.1903 50.5992 10.2469C50.7124 10.2469 50.8256 10.3035 50.8822 10.3035C50.9388 10.3035 51.052 10.3601 51.1086 10.3601C51.2218 10.3601 51.2784 10.4167 51.335 10.4167L51.618 10.5299L51.6746 10.1903L51.7878 9.28472V9.05832L51.5614 9.00172C51.5048 9.00172 51.3916 8.94512 51.335 8.94512C51.2784 8.94512 51.2218 8.88852 51.1086 8.88852C51.052 8.88852 50.9388 8.83193 50.8256 8.83193C50.7124 8.83193 50.6558 8.77533 50.5426 8.77533H50.486V7.69995H49.1276V8.83193H49.071C48.9012 8.88852 48.7314 8.94512 48.5616 9.05832C48.3918 9.11492 48.2786 9.22812 48.1655 9.34131C48.0523 9.45451 47.9391 9.56771 47.8259 9.7375C47.7127 9.8507 47.6561 10.0205 47.5995 10.1903L47.4297 10.6997C47.3731 10.8695 47.3731 11.0959 47.3731 11.2657C47.3731 11.4355 47.3731 11.5487 47.4297 11.7185C47.4863 11.8883 47.4863 12.0015 47.5995 12.1712C47.6561 12.2844 47.7693 12.4542 47.8259 12.5674C47.9391 12.6806 47.9957 12.7938 48.1089 12.907C48.222 13.0202 48.3352 13.1334 48.505 13.19C48.6182 13.3032 48.788 13.3598 48.9012 13.4164C49.071 13.473 49.2408 13.5862 49.354 13.6428C49.5238 13.6994 49.6936 13.756 49.8068 13.8126C49.8634 13.8126 49.9766 13.8692 50.0332 13.9258C50.0898 13.9824 50.203 13.9824 50.2596 14.039C50.3162 14.0956 50.3728 14.1522 50.4294 14.1522L50.5992 14.322C50.6558 14.3786 50.6558 14.4352 50.7124 14.5484C50.7124 14.605 50.769 14.7182 50.769 14.8314V15.1144C50.769 15.171 50.7124 15.2842 50.6558 15.3408L50.486 15.5106C50.4294 15.5672 50.3728 15.6238 50.2596 15.6804C50.203 15.737 50.0898 15.737 50.0332 15.7936C49.9766 15.7936 49.8634 15.8502 49.7502 15.8502H49.0144C48.9012 15.8502 48.788 15.7936 48.7314 15.7936C48.6182 15.7936 48.505 15.737 48.3918 15.6804C48.2786 15.6238 48.1655 15.6238 48.0523 15.5672C47.9957 15.5672 47.9391 15.5106 47.8825 15.5106C47.8259 15.5106 47.7693 15.454 47.7127 15.454L47.3731 15.2842L47.3165 15.6804L47.2033 16.6991V16.8689L47.3731 16.9255C47.5995 16.8689 47.7127 16.9255 47.8825 16.9821C47.9957 17.0387 48.1655 17.0953 48.2786 17.0953C48.3918 17.1519 48.5616 17.1519 48.7314 17.2085C48.9012 17.2651 49.0144 17.2651 49.1842 17.2651H49.2974V18.3971H50.6558V17.2085H50.7124C50.8822 17.1519 51.052 17.0953 51.2218 16.9821C51.3916 16.9255 51.5048 16.8123 51.6746 16.6991C51.7878 16.5859 51.901 16.4728 52.0142 16.303C52.1274 16.1898 52.184 16.02 52.2972 15.8502L52.4669 15.3408C52.5235 15.171 52.5236 15.0012 52.5236 14.7748C52.5236 14.605 52.5235 14.4918 52.4669 14.322ZM45.9015 22.359C45.6185 21.9628 44.9959 21.9062 44.5997 22.1892L35.4307 29.4905L23.6016 24.5664C23.3186 24.4532 22.979 24.5098 22.7526 24.6796L10.0745 33.7354C9.67832 34.0184 9.56513 34.5843 9.84812 34.9805C10.0179 35.2635 10.3009 35.3767 10.5839 35.3767C10.7537 35.3767 10.9235 35.3201 11.0933 35.2069L23.3752 26.4341L35.2609 31.3582C35.5439 31.4714 35.9401 31.4148 36.1665 31.245L45.7317 23.6608C46.1279 23.3778 46.1845 22.7552 45.9015 22.359Z" fill="white"/>
<path d="M59.1456 53.3752H54.9573V27.17C54.9573 26.6606 54.5611 26.2644 54.0518 26.2644H45.7318C45.2224 26.2644 44.8262 26.6606 44.8262 27.17V53.3752H41.7698V36.2258C41.7698 35.7164 41.3736 35.3202 40.8643 35.3202H32.4877C31.9783 35.3202 31.5821 35.7164 31.5821 36.2258V53.3752H28.5257V34.8674C28.5257 34.358 28.1296 33.9618 27.6202 33.9618H19.3002C18.7908 33.9618 18.3946 34.358 18.3946 34.8674V53.3752H15.3382V40.1877C15.3382 39.6783 14.9421 39.2821 14.4327 39.2821H6.05606C5.54667 39.2821 5.15048 39.6783 5.15048 40.1877V53.3752H0.905579C0.396191 53.3752 0 53.7714 0 54.2808C0 54.7902 0.396191 55.1863 0.905579 55.1863H59.089C59.5984 55.1863 59.9946 54.7902 59.9946 54.2808C60.0512 53.7714 59.655 53.3752 59.1456 53.3752ZM13.4705 53.3752H6.96164V41.0933H13.4705V53.3752ZM26.7146 53.3752H20.2057V35.773H26.7146V53.3752ZM39.9021 53.3752H33.3932V37.1314H39.9021V53.3752ZM53.1462 53.3752H46.6373V28.0756H53.1462V53.3752Z" fill="white"/>
</g>
<defs>
<clipPath id="clip0_600_709">
<rect width="60" height="60" fill="white"/>
</clipPath>
</defs>
</svg>
