<svg width="60" height="60" viewBox="0 0 60 60" fill="none" xmlns="http://www.w3.org/2000/svg">
<path d="M35.6251 12.1875H32.8126V9.375C32.8126 9.12636 32.7138 8.8879 32.538 8.71209C32.3622 8.53627 32.1237 8.4375 31.8751 8.4375H28.1251C27.8765 8.4375 27.638 8.53627 27.4622 8.71209C27.2864 8.8879 27.1876 9.12636 27.1876 9.375V12.1875H24.3751C24.1265 12.1875 23.888 12.2863 23.7122 12.4621C23.5364 12.6379 23.4376 12.8764 23.4376 13.125V16.875C23.4376 17.1236 23.5364 17.3621 23.7122 17.5379C23.888 17.7137 24.1265 17.8125 24.3751 17.8125H27.1876V20.625C27.1876 20.8736 27.2864 21.1121 27.4622 21.2879C27.638 21.4637 27.8765 21.5625 28.1251 21.5625H31.8751C32.1237 21.5625 32.3622 21.4637 32.538 21.2879C32.7138 21.1121 32.8126 20.8736 32.8126 20.625V17.8125H35.6251C35.8737 17.8125 36.1122 17.7137 36.288 17.5379C36.4638 17.3621 36.5626 17.1236 36.5626 16.875V13.125C36.5626 12.8764 36.4638 12.6379 36.288 12.4621C36.1122 12.2863 35.8737 12.1875 35.6251 12.1875ZM34.6876 15.9375H31.8751C31.6265 15.9375 31.388 16.0363 31.2122 16.2121C31.0364 16.3879 30.9376 16.6264 30.9376 16.875V19.6875H29.0626V16.875C29.0626 16.6264 28.9638 16.3879 28.788 16.2121C28.6122 16.0363 28.3737 15.9375 28.1251 15.9375H25.3126V14.0625H28.1251C28.3737 14.0625 28.6122 13.9637 28.788 13.7879C28.9638 13.6121 29.0626 13.3736 29.0626 13.125V10.3125H30.9376V13.125C30.9376 13.3736 31.0364 13.6121 31.2122 13.7879C31.388 13.9637 31.6265 14.0625 31.8751 14.0625H34.6876V15.9375ZM55.997 17.2125C56.0159 17.0476 56.0253 16.8817 56.0251 16.7156C56.0205 15.8563 55.7225 15.0243 55.1802 14.3576C54.638 13.6909 53.8842 13.2296 53.0438 13.05C52.0933 12.8691 51.1094 13.056 50.2914 13.5729C49.4734 14.0898 48.8822 14.8981 48.6376 15.8344L44.5126 27.7031C44.4515 27.7274 44.392 27.7556 44.3345 27.7875L36.047 32.6437C34.7788 33.3887 33.7269 34.4516 32.9953 35.7274C32.2636 37.0033 31.8775 38.448 31.8751 39.9188V48.75C31.6265 48.75 31.388 48.8488 31.2122 49.0246C31.0364 49.2004 30.9376 49.4389 30.9376 49.6875V57.1875C30.9376 57.4361 31.0364 57.6746 31.2122 57.8504C31.388 58.0262 31.6265 58.125 31.8751 58.125H45.0001C45.2487 58.125 45.4872 58.0262 45.663 57.8504C45.8388 57.6746 45.9376 57.4361 45.9376 57.1875V49.6875C45.9376 49.4389 45.8388 49.2004 45.663 49.0246C45.4872 48.8488 45.2487 48.75 45.0001 48.75V46.6875C45.0019 46.2915 45.0861 45.9003 45.2475 45.5387C45.409 45.1771 45.644 44.8532 45.9376 44.5875L52.2751 38.9531C52.9683 38.3466 53.4645 37.5467 53.7001 36.6562L57.7688 21.4406C57.8557 21.1229 57.8998 20.795 57.9001 20.4656C57.8964 19.804 57.7186 19.1551 57.3845 18.584C57.0504 18.0129 56.5719 17.5399 55.997 17.2125ZM50.4282 16.3875C50.5433 15.9027 50.8369 15.479 51.2504 15.201C51.6639 14.923 52.1671 14.8111 52.6595 14.8875C53.0797 14.9755 53.457 15.2051 53.7283 15.5378C53.9996 15.8705 54.1485 16.2863 54.1501 16.7156V16.7344C53.3127 16.7499 52.5033 17.0386 51.845 17.5564C51.1867 18.0742 50.7155 18.7929 50.5032 19.6031L47.8876 27.675C47.4916 27.4872 47.067 27.3668 46.6313 27.3187L50.4282 16.3875ZM44.0626 56.25H32.8126V50.625H44.0626V56.25ZM55.9595 20.9531L51.8813 36.1781C51.7402 36.7072 51.4469 37.1831 51.0376 37.5469L44.6907 43.1813C44.1996 43.6241 43.8066 44.1649 43.537 44.7687C43.2673 45.3726 43.127 46.0262 43.1251 46.6875V48.75H33.7501V39.9188C33.7547 38.7749 34.0561 37.6519 34.6246 36.6594C35.1932 35.6669 36.0095 34.8389 36.9938 34.2563L45.272 29.4094C45.4854 29.285 45.7213 29.2041 45.9661 29.1712C46.211 29.1383 46.4599 29.1541 46.6986 29.2177C46.9373 29.2812 47.1611 29.3914 47.3571 29.5417C47.5531 29.6921 47.7174 29.8797 47.8407 30.0937C48.0842 30.5269 48.1514 31.0373 48.0282 31.5187C47.9631 31.7565 47.8517 31.979 47.7005 32.1737C47.5493 32.3683 47.3612 32.5312 47.147 32.6531L41.7751 35.7562C41.571 35.886 41.425 36.0895 41.3675 36.3244C41.3099 36.5592 41.3454 36.8072 41.4664 37.0166C41.5874 37.2259 41.7846 37.3804 42.0168 37.4478C42.2491 37.5152 42.4983 37.4902 42.7126 37.3781L48.0845 34.275C48.5138 34.0314 48.8901 33.7043 49.1912 33.3131C49.4923 32.9218 49.7121 32.4743 49.8376 31.9969C50.0928 31.0376 49.958 30.0164 49.4626 29.1562L49.4063 29.0719L52.3032 20.1375C52.4183 19.6527 52.7119 19.229 53.1254 18.951C53.5389 18.673 54.0421 18.5611 54.5345 18.6375C54.9547 18.7255 55.332 18.9551 55.6033 19.2878C55.8746 19.6205 56.0235 20.0363 56.0251 20.4656C56.0282 20.6305 56.0061 20.7949 55.9595 20.9531ZM28.1251 48.75V39.9188C28.1227 38.448 27.7366 37.0033 27.0049 35.7274C26.2733 34.4516 25.2214 33.3887 23.9532 32.6437L15.6657 27.7781C15.6095 27.75 15.5438 27.7312 15.4876 27.7031L11.3907 15.9C11.1526 14.9501 10.5615 14.1267 9.73771 13.5972C8.91391 13.0677 7.91932 12.8721 6.95635 13.05C6.11596 13.2296 5.36218 13.6909 4.81996 14.3576C4.27774 15.0243 3.97964 15.8563 3.9751 16.7156C3.97485 16.8817 3.98424 17.0476 4.00322 17.2125C3.42832 17.5399 2.94976 18.0129 2.61568 18.584C2.2816 19.1551 2.10378 19.804 2.1001 20.4656C2.10192 20.7943 2.14283 21.1216 2.22197 21.4406L6.3001 36.6469C6.53314 37.5411 7.02963 38.3446 7.7251 38.9531L14.0532 44.5875C14.3498 44.8513 14.5874 45.1747 14.7505 45.5366C14.9137 45.8984 14.9987 46.2906 15.0001 46.6875V48.75C14.7515 48.75 14.513 48.8488 14.3372 49.0246C14.1614 49.2004 14.0626 49.4389 14.0626 49.6875V57.1875C14.0626 57.4361 14.1614 57.6746 14.3372 57.8504C14.513 58.0262 14.7515 58.125 15.0001 58.125H28.1251C28.3737 58.125 28.6122 58.0262 28.788 57.8504C28.9638 57.6746 29.0626 57.4361 29.0626 57.1875V49.6875C29.0626 49.4389 28.9638 49.2004 28.788 49.0246C28.6122 48.8488 28.3737 48.75 28.1251 48.75ZM5.8501 16.7156C5.85125 16.2876 5.99882 15.8729 6.26828 15.5403C6.53774 15.2077 6.91287 14.9774 7.33135 14.8875C7.83728 14.8141 8.35227 14.9346 8.77304 15.225C9.19381 15.5153 9.48924 15.9541 9.6001 16.4531L13.3688 27.3187C12.9332 27.3668 12.5086 27.4872 12.1126 27.675L9.51572 19.65C9.30438 18.8318 8.83232 18.1047 8.17095 17.5786C7.50958 17.0526 6.69488 16.7562 5.8501 16.7344V16.7156ZM15.3001 43.1813L8.9626 37.5469C8.55108 37.1812 8.25742 36.7015 8.11885 36.1688L4.03135 20.9531C3.99254 20.7936 3.97365 20.6298 3.9751 20.4656C3.97625 20.0376 4.12382 19.6229 4.39328 19.2903C4.66274 18.9577 5.03787 18.7274 5.45635 18.6375C5.95872 18.5621 6.47101 18.6797 6.89017 18.9667C7.30934 19.2537 7.6043 19.6887 7.71572 20.1844L10.5938 29.0719L10.5376 29.1562C10.0422 30.0164 9.9074 31.0376 10.1626 31.9969C10.2881 32.4743 10.5079 32.9218 10.809 33.3131C11.11 33.7043 11.4863 34.0314 11.9157 34.275L17.2876 37.3781C17.5019 37.4902 17.7511 37.5152 17.9834 37.4478C18.2156 37.3804 18.4128 37.2259 18.5338 37.0166C18.6548 36.8072 18.6903 36.5592 18.6327 36.3244C18.5752 36.0895 18.4292 35.886 18.2251 35.7562L12.8532 32.6531C12.639 32.5312 12.4509 32.3683 12.2997 32.1737C12.1484 31.979 12.0371 31.7565 11.972 31.5187C11.8488 31.0373 11.916 30.5269 12.1595 30.0937C12.282 29.8801 12.4453 29.6928 12.6402 29.5423C12.8352 29.3918 13.0578 29.2812 13.2955 29.2168C13.5331 29.1524 13.7812 29.1354 14.0254 29.1668C14.2696 29.1983 14.5052 29.2775 14.7188 29.4L23.0063 34.2563C23.9907 34.8389 24.807 35.6669 25.3756 36.6594C25.9441 37.6519 26.2454 38.7749 26.2501 39.9188V48.75H16.8751V46.6875C16.8735 46.0252 16.7324 45.3707 16.4611 44.7666C16.1897 44.1625 15.7941 43.6223 15.3001 43.1813ZM27.1876 56.25H15.9376V50.625H27.1876V56.25Z" fill="#1D7D57"/>
<path d="M43.2629 4.8113C42.3925 3.93946 41.3588 3.2478 40.2209 2.77592C39.083 2.30404 37.8632 2.06119 36.6313 2.06128C35.3994 2.06137 34.1796 2.30439 33.0417 2.77643C31.9039 3.24847 30.8702 3.94027 30 4.81224C29.1299 3.94025 28.0964 3.24845 26.9585 2.77642C25.8207 2.3044 24.601 2.06144 23.3691 2.06144C22.1373 2.06144 20.9175 2.3044 19.7797 2.77642C18.6418 3.24845 17.6083 3.94025 16.7382 4.81224C14.9835 6.57069 13.998 8.95339 13.998 11.4376C13.998 13.9217 14.9835 16.3044 16.7382 18.0629L29.3382 30.6629C29.514 30.8386 29.7524 30.9373 30.001 30.9373C30.2496 30.9373 30.488 30.8386 30.6638 30.6629L43.2638 18.0629C45.0184 16.3041 46.0037 13.9212 46.0035 11.4369C46.0034 8.95258 45.0177 6.56979 43.2629 4.8113ZM30 28.6744L18.0629 16.7372C17.0149 15.6878 16.3015 14.3512 16.013 12.8964C15.7245 11.4417 15.8738 9.93401 16.4421 8.56407C17.0103 7.19413 17.9719 6.02342 19.2054 5.19992C20.4389 4.37643 21.8888 3.93713 23.3719 3.93755C24.3571 3.93417 25.3331 4.12698 26.243 4.50476C27.1529 4.88253 27.9785 5.43769 28.6716 6.13786L29.3372 6.80349C29.513 6.97924 29.7515 7.07798 30 7.07798C30.2486 7.07798 30.4871 6.97924 30.6629 6.80349L31.3304 6.13599C32.0264 5.43873 32.853 4.88555 33.7631 4.50813C34.6731 4.1307 35.6486 3.93643 36.6338 3.93643C37.619 3.93643 38.5945 4.1307 39.5045 4.50813C40.4146 4.88555 41.2412 5.43873 41.9372 6.13599C43.3416 7.54222 44.1303 9.44832 44.1303 11.4357C44.1303 13.423 43.3416 15.3291 41.9372 16.7354L30 28.6744Z" fill="#1D7D57"/>
</svg>
