<svg width="60" height="60" viewBox="0 0 60 60" fill="none" xmlns="http://www.w3.org/2000/svg">
<path d="M30.0018 1.87806C29.5001 1.86216 29.0002 1.94719 28.532 2.12812C28.0637 2.30905 27.6365 2.58218 27.2758 2.93132C26.9151 3.28045 26.6282 3.69848 26.4321 4.1606C26.236 4.62272 26.1347 5.11952 26.1342 5.62152C26.1337 6.12353 26.2341 6.62052 26.4293 7.08301C26.6246 7.5455 26.9107 7.96407 27.2707 8.31388C27.6308 8.6637 28.0574 8.93764 28.5254 9.11945C28.9933 9.30127 29.493 9.38725 29.9948 9.3723C30.4871 9.37276 30.9746 9.27626 31.4297 9.08829C31.8847 8.90032 32.2982 8.62457 32.6467 8.27678C32.9951 7.92899 33.2716 7.51598 33.4605 7.06132C33.6493 6.60666 33.7467 6.11926 33.7472 5.62695C33.7477 5.13464 33.6511 4.64705 33.4632 4.19204C33.2752 3.73702 32.9995 3.32349 32.6517 2.97504C32.3039 2.6266 31.8909 2.35006 31.4362 2.16124C30.9815 1.97241 30.4942 1.87852 30.0018 1.87806ZM30.0018 3.74896C30.499 3.74802 30.9761 3.9446 31.3283 4.29547C31.6805 4.64633 31.8789 5.12273 31.8798 5.61986C31.8808 6.117 31.6842 6.59414 31.3333 6.94633C30.9825 7.29852 30.5061 7.49691 30.0089 7.49785C29.5118 7.49879 29.0346 7.30221 28.6825 6.95134C28.3303 6.60048 28.1319 6.12408 28.1309 5.62695C28.13 5.12981 28.3266 4.65267 28.6774 4.30048C29.0283 3.94829 29.5047 3.7499 30.0018 3.74896ZM23.6946 7.50139L11.144 13.2877C10.0101 13.7838 10.7684 15.5201 11.9271 14.9886L24.4848 9.20576C25.36 8.81599 25.1332 7.48368 24.1517 7.41281C23.9939 7.40333 23.8364 7.43154 23.6946 7.50139ZM48.0731 14.9956C49.2317 15.5236 49.99 13.7909 48.8597 13.2913L36.3055 7.50139C36.1634 7.43245 36.0061 7.40075 35.8484 7.40927C34.8704 7.48013 34.6437 8.81244 35.5189 9.20222L48.0731 14.9956ZM27.5427 12.572C27.0243 12.821 26.6247 13.2639 26.4301 13.8051C26.2742 14.1736 26.2175 14.3826 26.0226 14.62C25.8277 14.8574 25.4734 15.1622 24.6584 15.5059C23.8364 15.8531 23.3615 15.9027 23.0426 15.8815C22.7273 15.8602 22.5395 15.7646 22.1816 15.6228C21.672 15.3966 21.0971 15.3651 20.5658 15.5342C19.9386 15.7397 19.3256 16.2394 18.6382 16.9339C17.8941 17.6886 17.4441 18.3087 17.2669 18.8792C17.1105 19.4102 17.1546 19.9802 17.391 20.4808C17.5362 20.8351 17.6319 21.03 17.6603 21.3418C17.6886 21.6536 17.6461 22.132 17.313 22.9541C16.9799 23.7761 16.6787 24.1482 16.4413 24.3502C16.2075 24.5557 16.002 24.6194 15.6547 24.7683C15.1349 24.9541 14.7029 25.3267 14.4429 25.8136C14.1665 26.3451 14.0531 27.0892 14.0637 28.1238C14.0566 29.0735 14.1381 29.853 14.4429 30.4341C14.7035 30.9206 15.1353 31.293 15.6547 31.4794C16.002 31.6282 16.1968 31.6885 16.4342 31.8905C16.6681 32.096 16.9799 32.4716 17.313 33.2936C17.6425 34.098 17.6851 34.5728 17.6603 34.8882C17.6355 35.1964 17.5469 35.3842 17.4051 35.7209C17.174 36.1989 17.1152 36.7422 17.2386 37.2587C17.3859 37.7577 17.6425 38.2177 17.9898 38.6052C17.352 39.654 16.8488 40.7666 16.5016 41.9714C15.8299 40.9836 14.9306 40.1718 13.8795 39.6044C14.3672 39.0297 14.709 38.3457 14.8758 37.6107C15.0427 36.8756 15.0298 36.1112 14.838 35.3822C14.6463 34.6532 14.2816 33.9813 13.7747 33.4234C13.2678 32.8656 12.6338 32.4383 11.9264 32.1778C11.2191 31.9173 10.4594 31.8314 9.71176 31.9273C8.96413 32.0232 8.25068 32.2981 7.632 32.7286C7.01331 33.1592 6.50766 33.7327 6.15798 34.4004C5.8083 35.0682 5.62492 35.8104 5.6234 36.5642C5.61986 37.7229 6.04152 38.7823 6.74666 39.6044C5.55308 40.249 4.55684 41.2054 3.86416 42.3717C3.17149 43.538 2.80836 44.8705 2.81351 46.227V47.3254C2.81351 49.6747 4.70567 51.5633 7.03013 51.5633H13.5889C14.457 51.5633 15.2649 51.3046 15.9382 50.8475V54.3838C15.9382 55.5071 16.2925 56.6091 17.15 57.3354C18.0075 58.0618 19.2654 58.2886 20.7005 58.0087L20.7643 57.9945L29.9948 55.5071L39.2642 58.0016C40.7312 58.2851 41.9536 58.0902 42.8501 57.3354C43.7076 56.6126 44.062 55.5142 44.062 54.3944V50.8511C44.7352 51.3082 45.5431 51.5597 46.4112 51.5597H52.97C55.2945 51.5597 57.1866 49.6747 57.1866 47.329V46.227C57.1866 43.3604 55.6098 40.8765 53.2535 39.6008C53.9622 38.7859 54.3803 37.7229 54.3803 36.5642C54.3819 35.8077 54.2005 35.062 53.8516 34.3907C53.5027 33.7194 52.9966 33.1425 52.3765 32.7091C51.7565 32.2757 51.0408 31.9987 50.2905 31.9016C49.5402 31.8046 48.7776 31.8905 48.0677 32.1519C47.3578 32.4133 46.7216 32.8426 46.2134 33.403C45.7053 33.9634 45.3401 34.6384 45.1492 35.3705C44.9583 36.1025 44.9473 36.8699 45.1171 37.6071C45.2868 38.3443 45.6324 39.0296 46.1242 39.6044C45.0754 40.1713 44.1753 40.9757 43.4986 41.9785C43.155 40.7916 42.6545 39.656 42.0103 38.6016C42.3578 38.2156 42.6145 37.7568 42.7615 37.2587C42.885 36.7422 42.8261 36.1989 42.595 35.7209C42.4533 35.3842 42.3647 35.1964 42.3399 34.8846C42.3151 34.5728 42.3576 34.098 42.6871 33.2901C43.0202 32.4716 43.332 32.096 43.5694 31.8905C43.8068 31.6885 43.9946 31.6282 44.349 31.4794C44.8684 31.293 45.3002 30.9206 45.5608 30.4341C45.862 29.853 45.947 29.077 45.9399 28.1238C45.947 27.0856 45.8336 26.3451 45.5608 25.8136C45.3005 25.3269 44.8686 24.9544 44.349 24.7683C43.9946 24.6194 43.7962 24.5557 43.5588 24.3502C43.3214 24.1482 43.0202 23.7761 42.6871 22.9541C42.354 22.132 42.3115 21.6536 42.3399 21.3418C42.3682 21.03 42.4639 20.8387 42.6127 20.4808C42.8497 19.9804 42.8939 19.4101 42.7367 18.8792C42.5596 18.3122 42.1096 17.6886 41.3654 16.9339C40.678 16.2394 40.0615 15.7433 39.4343 15.5342C38.7398 15.3075 38.18 15.4846 37.8221 15.6264C37.4642 15.7681 37.2728 15.8602 36.9575 15.8815C36.6386 15.9027 36.1638 15.8531 35.3452 15.5059C34.5267 15.1622 34.1759 14.8574 33.981 14.62C33.7862 14.3826 33.7259 14.1736 33.57 13.8051C33.3755 13.2639 32.9758 12.821 32.4574 12.572C31.8515 12.2779 31.1215 12.1857 30.0018 12.1822C28.8786 12.1822 28.1522 12.2779 27.5427 12.572ZM5.6234 13.1212C5.13133 13.121 4.64402 13.2177 4.18931 13.4057C3.7346 13.5938 3.32139 13.8697 2.97327 14.2174C2.62515 14.5652 2.34895 14.9782 2.16042 15.4327C1.9719 15.8872 1.87474 16.3745 1.87451 16.8665C1.87428 17.3586 1.97097 17.8459 2.15907 18.3006C2.34716 18.7553 2.62298 19.1686 2.97077 19.5167C3.31855 19.8648 3.7315 20.141 4.18604 20.3295C4.64057 20.518 5.12778 20.6152 5.61986 20.6154C6.61366 20.6159 7.56694 20.2216 8.27 19.5192C8.97305 18.8168 9.36828 17.8639 9.36875 16.8701C9.36922 15.8763 8.97489 14.923 8.2725 14.22C7.57011 13.5169 6.6172 13.1217 5.6234 13.1212ZM54.3767 13.1212C53.3825 13.1203 52.4285 13.5143 51.7248 14.2167C51.0211 14.9191 50.6252 15.8723 50.6243 16.8665C50.6233 17.8608 51.0174 18.8147 51.7198 19.5184C52.4222 20.2222 53.3754 20.618 54.3696 20.619C54.8619 20.6194 55.3495 20.5229 55.8045 20.335C56.2596 20.147 56.6731 19.8712 57.0215 19.5235C57.37 19.1757 57.6465 18.7627 57.8354 18.308C58.0242 17.8533 58.1216 17.3659 58.1221 16.8736C58.1225 16.3813 58.026 15.8937 57.8381 15.4387C57.6501 14.9837 57.3743 14.5702 57.0266 14.2217C56.6788 13.8733 56.2658 13.5967 55.8111 13.4079C55.3564 13.2191 54.869 13.1217 54.3767 13.1212ZM31.6424 14.2551C31.77 14.3153 31.7842 14.4181 31.8408 14.5315C31.9472 14.7795 32.1066 15.2862 32.5283 15.8035C32.9499 16.3209 33.5948 16.8098 34.6082 17.2386C35.6181 17.6638 36.4224 17.802 37.0886 17.7559C37.7512 17.7099 38.2402 17.476 38.5059 17.3732C38.6618 17.313 38.7433 17.2776 38.8461 17.313C38.9808 17.3555 39.3209 17.5292 40.0296 18.2485C40.7028 18.9323 40.9013 19.3044 40.9438 19.439C40.9721 19.5489 40.9261 19.6481 40.8729 19.7686C40.7843 19.9812 40.5292 20.5127 40.4725 21.1753C40.4158 21.8379 40.5363 22.6458 40.9473 23.6557C41.3619 24.6726 41.8296 25.3352 42.3328 25.771C42.8359 26.2033 43.3533 26.3841 43.6155 26.4974C43.7643 26.5612 43.8352 26.5683 43.8919 26.6746C43.9486 26.788 44.0797 27.153 44.069 28.1238C44.0761 29.0345 43.9663 29.4207 43.8919 29.5695C43.8352 29.6794 43.7289 29.7007 43.6155 29.7467C43.3497 29.8601 42.8359 30.0408 42.3328 30.4767C41.8296 30.9089 41.3619 31.5751 40.9509 32.585C40.5469 33.5807 40.4194 34.3744 40.4725 35.0299C40.5221 35.6854 40.7383 36.1283 40.8658 36.4402C40.9225 36.5961 40.9757 36.6811 40.9473 36.7874C40.9254 36.8556 40.8981 36.9219 40.8658 36.9858C39.4611 35.2854 37.6771 33.9383 35.6571 33.0527C36.8122 31.731 37.4996 30.0089 37.4996 28.1274C37.4968 26.1397 36.7067 24.234 35.3022 22.8275C33.8976 21.421 31.9931 20.6281 30.0054 20.6225C25.8738 20.6225 22.5041 23.9923 22.5041 28.1238C22.5041 30.0089 23.1915 31.731 24.3466 33.0491C22.3265 33.9345 20.5424 35.2817 19.1378 36.9823C19.106 36.9194 19.0787 36.8543 19.0563 36.7874C19.028 36.6811 19.0847 36.5961 19.1378 36.4402C19.2689 36.1319 19.4816 35.6854 19.5312 35.0299C19.5808 34.3744 19.4603 33.5807 19.0563 32.585C18.6453 31.5716 18.1776 30.9089 17.6744 30.4767C17.1677 30.0408 16.6539 29.8601 16.3917 29.7467C16.2748 29.7007 16.172 29.6794 16.1153 29.5695C16.0374 29.4207 15.9275 29.0345 15.9346 28.1238C15.9275 27.153 16.0551 26.788 16.1118 26.6746C16.172 26.5683 16.2429 26.5612 16.3917 26.4974C16.6539 26.3841 17.1677 26.2033 17.6709 25.771C18.1776 25.3352 18.6453 24.6726 19.0563 23.6592C19.4674 22.6458 19.5879 21.8379 19.5312 21.1753C19.4745 20.5127 19.2193 19.9847 19.1308 19.7686C19.0812 19.6481 19.0315 19.5489 19.0599 19.439C19.1024 19.3044 19.3008 18.9323 19.9741 18.2485C20.6828 17.5292 21.0265 17.3555 21.1611 17.313C21.2639 17.2776 21.3418 17.313 21.4977 17.3732C21.7635 17.4795 22.256 17.7099 22.9151 17.7559C23.5812 17.802 24.3856 17.6638 25.3954 17.2386C26.4089 16.8098 27.0573 16.3173 27.479 15.8035C27.8971 15.2862 28.0601 14.7795 28.1628 14.5279C28.2231 14.4181 28.2337 14.3153 28.3648 14.2551C28.5136 14.1842 29.0097 14.0602 30.0054 14.0602C30.9975 14.0602 31.4901 14.1807 31.6424 14.2551ZM5.6234 14.9992C5.87614 14.9875 6.12862 15.0271 6.36564 15.1156C6.60266 15.2041 6.81931 15.3396 7.00255 15.5141C7.18578 15.6885 7.3318 15.8983 7.43181 16.1307C7.53182 16.3631 7.58375 16.6133 7.58446 16.8663C7.58518 17.1193 7.53467 17.3698 7.43599 17.6028C7.3373 17.8358 7.19247 18.0463 7.01023 18.2218C6.82799 18.3973 6.61211 18.5341 6.3756 18.6239C6.13908 18.7138 5.88683 18.7548 5.63404 18.7445C5.15137 18.7249 4.69491 18.5198 4.35983 18.1718C4.02476 17.8239 3.83696 17.36 3.83559 16.8769C3.83421 16.3939 4.01938 15.929 4.35248 15.5791C4.68557 15.2293 5.14086 15.0215 5.6234 14.9992ZM54.3767 14.9992C54.8739 14.9992 55.3506 15.1967 55.7022 15.5482C56.0537 15.8997 56.2512 16.3765 56.2512 16.8736C56.2512 17.3708 56.0537 17.8475 55.7022 18.1991C55.3506 18.5506 54.8739 18.7481 54.3767 18.7481C53.8995 18.7187 53.4515 18.5085 53.1239 18.1602C52.7964 17.8119 52.614 17.3517 52.614 16.8736C52.614 16.3955 52.7964 15.9354 53.1239 15.5871C53.4515 15.2388 53.8995 15.0285 54.3767 14.9992ZM7.3136 22.1462C7.1642 22.1372 7.01483 22.1641 6.87794 22.2246C6.74105 22.2852 6.62061 22.3775 6.52665 22.494C6.43269 22.6105 6.36794 22.7478 6.33779 22.8944C6.30764 23.041 6.31297 23.1926 6.35334 23.3367L8.00101 29.5802C8.28448 30.8381 10.1802 30.3385 9.81168 29.1018L8.16401 22.8619C8.11692 22.6676 8.00904 22.4934 7.85609 22.3647C7.70313 22.236 7.51308 22.1594 7.3136 22.1462ZM52.6865 22.1462C52.4869 22.1589 52.2966 22.2352 52.1435 22.364C51.9904 22.4929 51.8827 22.6674 51.8361 22.8619L50.1885 29.1018C49.8199 30.342 51.7121 30.8381 52.0027 29.5802L53.6503 23.3367C53.6908 23.1923 53.6961 23.0403 53.6658 22.8934C53.6355 22.7465 53.5704 22.609 53.476 22.4925C53.3817 22.3759 53.2607 22.2836 53.1234 22.2234C52.986 22.1631 52.8362 22.1366 52.6865 22.1462ZM30.0018 22.497C31.4942 22.497 32.9254 23.0898 33.9806 24.145C35.0359 25.2003 35.6287 26.6315 35.6287 28.1238C35.6287 29.6162 35.0359 31.0474 33.9806 32.1027C32.9254 33.1579 31.4942 33.7507 30.0018 33.7507C28.5095 33.7507 27.0783 33.1579 26.023 32.1027C24.9678 31.0474 24.375 29.6162 24.375 28.1238C24.375 26.6315 24.9678 25.2003 26.023 24.145C27.0783 23.0898 28.5095 22.497 30.0018 22.497ZM10.3113 33.7472C11.057 33.7472 11.7722 34.0434 12.2994 34.5707C12.8267 35.098 13.123 35.8132 13.123 36.5589C13.123 37.3046 12.8267 38.0197 12.2994 38.547C11.7722 39.0743 11.057 39.3705 10.3113 39.3705C9.56559 39.3705 8.85043 39.0743 8.32314 38.547C7.79585 38.0197 7.49962 37.3046 7.49962 36.5589C7.49962 35.8132 7.79585 35.098 8.32314 34.5707C8.85043 34.0434 9.56559 33.7472 10.3113 33.7472ZM49.6888 33.7472C50.0664 33.7333 50.443 33.7956 50.796 33.9305C51.149 34.0653 51.4712 34.2698 51.7434 34.5319C52.0156 34.794 52.2323 35.1082 52.3804 35.4558C52.5285 35.8034 52.6051 36.1773 52.6056 36.5552C52.6061 36.933 52.5304 37.3071 52.3832 37.6551C52.2359 38.0031 52.0201 38.3179 51.7485 38.5806C51.477 38.8434 51.1553 39.0487 50.8026 39.1845C50.4499 39.3202 50.0736 39.3835 49.6959 39.3705C48.9675 39.3456 48.2771 39.0389 47.7702 38.5151C47.2634 37.9913 46.9796 37.2912 46.9787 36.5623C46.9778 35.8334 47.2598 35.1326 47.7653 34.6075C48.2708 34.0824 48.9604 33.774 49.6888 33.7472ZM23.4395 49.1751V45.9293C23.4112 44.7069 21.5934 44.7069 21.5615 45.9293V49.657L21.3312 49.7172C20.1158 50.0255 20.58 51.8432 21.7918 51.5349L35.9653 47.8959C36.2141 47.8289 36.4735 47.8115 36.729 47.8448C36.9844 47.8781 37.2308 47.9613 37.454 48.0898C37.6773 48.2183 37.873 48.3895 38.0301 48.5936C38.1872 48.7978 38.3025 49.0309 38.3695 49.2796C38.4365 49.5283 38.4539 49.7878 38.4206 50.0432C38.3873 50.2986 38.3041 50.545 38.1756 50.7682C38.0471 50.9915 37.8759 51.1872 37.6718 51.3443C37.4676 51.5014 37.2345 51.6168 36.9858 51.6838L20.339 56.1626H20.332C19.2689 56.3681 18.6949 56.1803 18.3618 55.9004C18.0252 55.6169 17.8162 55.1244 17.8162 54.3767V45.9364C17.8162 40.5894 21.2249 36.0787 25.9411 34.4311C27.1512 35.2092 28.5596 35.6229 29.9983 35.6229C31.437 35.6229 32.8454 35.2092 34.0555 34.4311C36.4393 35.2647 38.5037 36.8211 39.9613 38.8833C41.419 40.9456 42.1971 43.411 42.1875 45.9364V54.3909C42.1875 55.1279 41.9749 55.6169 41.6418 55.9004C41.3052 56.1839 40.7347 56.3681 39.6682 56.1626L33.609 54.5326L37.4713 53.4909C38.2001 53.295 38.855 52.8886 39.354 52.3224C39.853 51.7563 40.1741 51.0556 40.2769 50.308C40.3798 49.5603 40.2599 48.799 39.9323 48.1191C39.6047 47.4392 39.0839 46.871 38.4351 46.4856V45.9258C38.4067 44.7033 36.589 44.7139 36.5606 45.9577C36.2027 45.9436 35.8446 45.9818 35.4976 46.0711L23.4395 49.1751ZM33.7507 40.3131C32.5283 40.3414 32.5283 42.1592 33.7507 42.1875H36.5606C37.7831 42.1592 37.7831 40.3379 36.5606 40.3095L33.7507 40.3131ZM8.49708 40.88C9.07268 41.1215 9.69063 41.2459 10.3148 41.2459C10.939 41.2459 11.557 41.1215 12.1326 40.88C13.2463 41.2615 14.2124 41.9826 14.895 42.9417C15.5776 43.9008 15.9424 45.0497 15.9382 46.227V47.3254C15.941 47.6354 15.8823 47.9428 15.7654 48.2299C15.6485 48.517 15.4758 48.778 15.2572 48.9979C15.0387 49.2177 14.7787 49.392 14.4923 49.5106C14.206 49.6292 13.8989 49.6898 13.5889 49.6888H7.03013C6.72088 49.6884 6.41478 49.6268 6.12944 49.5076C5.84409 49.3884 5.58513 49.2139 5.36745 48.9943C5.14978 48.7746 4.97768 48.5141 4.86106 48.2277C4.74445 47.9413 4.68562 47.6346 4.68795 47.3254V46.227C4.68795 43.7501 6.2683 41.6312 8.49708 40.88ZM47.8675 40.88C48.4433 41.1232 49.062 41.2484 49.6871 41.2484C50.3121 41.2484 50.9308 41.1232 51.5066 40.88C53.7318 41.6277 55.3122 43.7501 55.3122 46.227V47.3254C55.3122 48.6187 54.2846 49.6888 52.9735 49.6888H46.4112C46.1015 49.6888 45.7949 49.6276 45.5089 49.5087C45.223 49.3897 44.9633 49.2154 44.745 48.9958C44.5267 48.7761 44.3539 48.5154 44.2367 48.2288C44.1195 47.9421 44.0601 47.6351 44.062 47.3254V46.227C44.062 43.7537 45.6423 41.6312 47.8675 40.88Z" fill="white"/>
</svg>
