<svg width="60" height="60" viewBox="0 0 60 60" fill="none" xmlns="http://www.w3.org/2000/svg">
<path d="M51.5625 15.9375C51.8109 15.9375 52.05 15.8391 52.2253 15.6628L55.9753 11.9128C56.0625 11.8259 56.1316 11.7226 56.1788 11.6088C56.2259 11.4951 56.2501 11.3731 56.25 11.25V7.3275C56.7968 7.13477 57.2705 6.77756 57.6062 6.30489C57.9419 5.83222 58.1231 5.26725 58.125 4.6875C58.125 3.13688 56.8631 1.875 55.3125 1.875C53.7619 1.875 52.5 3.13688 52.5 4.6875C52.5 5.90813 53.2866 6.93938 54.375 7.3275V10.8619L51.1744 14.0625H39.8128C39.138 13.6378 38.4365 13.2571 37.7128 12.9225C37.6445 12.8944 37.5731 12.8749 37.5 12.8644V8.82562L40.7006 5.625H42.36C42.5527 6.17178 42.9099 6.64552 43.3826 6.98123C43.8553 7.31693 44.4203 7.49814 45 7.5C46.5506 7.5 47.8125 6.23813 47.8125 4.6875C47.8125 3.13688 46.5506 1.875 45 1.875C44.4203 1.87686 43.8553 2.05807 43.3826 2.39377C42.9099 2.72948 42.5527 3.20322 42.36 3.75H40.3125C40.1894 3.74987 40.0674 3.77407 39.9537 3.82121C39.8399 3.86835 39.7366 3.9375 39.6497 4.02469L35.8997 7.77469C35.8125 7.86163 35.7434 7.96494 35.6962 8.07869C35.6491 8.19243 35.6249 8.31437 35.625 8.4375V14.2219L35.0053 14.8838C34.4238 14.6913 33.8315 14.5329 33.2316 14.4094L32.6841 12.0638C32.6396 11.873 32.5364 11.7009 32.3891 11.5718C32.2418 11.4427 32.0578 11.3629 31.8628 11.3438C31.5478 11.3128 31.245 11.3128 30.9375 11.2978V7.3275C31.4843 7.13477 31.958 6.77756 32.2937 6.30489C32.6294 5.83222 32.8106 5.26725 32.8125 4.6875C32.8125 3.13688 31.5506 1.875 30 1.875C28.4494 1.875 27.1875 3.13688 27.1875 4.6875C27.1875 5.90813 27.9741 6.93938 29.0625 7.3275V11.2978C28.755 11.3138 28.4513 11.3128 28.1372 11.3438C27.9422 11.3629 27.7582 11.4427 27.6109 11.5718C27.4636 11.7009 27.3604 11.873 27.3159 12.0638L26.7684 14.4094C26.1684 14.5331 25.575 14.6916 24.9956 14.8838L24.375 14.2209V8.4375C24.3751 8.31437 24.3509 8.19243 24.3038 8.07869C24.2566 7.96494 24.1875 7.86163 24.1003 7.77469L20.3503 4.02469C20.2634 3.9375 20.1601 3.86835 20.0463 3.82121C19.9326 3.77407 19.8106 3.74987 19.6875 3.75H17.64C17.4473 3.20322 17.0901 2.72948 16.6174 2.39377C16.1447 2.05807 15.5798 1.87686 15 1.875C13.4494 1.875 12.1875 3.13688 12.1875 4.6875C12.1875 6.23813 13.4494 7.5 15 7.5C15.5798 7.49814 16.1447 7.31693 16.6174 6.98123C17.0901 6.64552 17.4473 6.17178 17.64 5.625H19.2994L22.5 8.82562V12.8644C22.4288 12.8784 22.3566 12.8916 22.2872 12.9225C21.5644 13.2497 20.8688 13.6416 20.1872 14.0625H8.82562L5.625 10.8619V7.3275C6.17178 7.13477 6.64552 6.77756 6.98123 6.30489C7.31693 5.83222 7.49814 5.26725 7.5 4.6875C7.5 3.13688 6.23813 1.875 4.6875 1.875C3.13688 1.875 1.875 3.13688 1.875 4.6875C1.875 5.90813 2.66156 6.93938 3.75 7.3275V11.25C3.75 11.4984 3.84844 11.7375 4.02469 11.9128L7.77469 15.6628C7.86163 15.75 7.96494 15.8191 8.07869 15.8663C8.19243 15.9134 8.31437 15.9376 8.4375 15.9375H18.7472L19.4034 18.0975C18.9441 18.5072 18.5063 18.9441 18.0975 19.4034L15.825 18.7125C15.6379 18.6554 15.4377 18.6583 15.2524 18.7208C15.0671 18.7834 14.906 18.9024 14.7919 19.0613C14.4289 19.5658 14.0907 20.0877 13.7784 20.625H10.1391C9.94662 20.0782 9.58962 19.6044 9.11708 19.2687C8.64454 18.933 8.07966 18.7518 7.5 18.75C5.94938 18.75 4.6875 20.0119 4.6875 21.5625C4.6875 23.1131 5.94938 24.375 7.5 24.375C8.07975 24.3731 8.64472 24.1919 9.11739 23.8562C9.59006 23.5205 9.94727 23.0468 10.14 22.5H12.8644C12.8334 22.6543 12.8421 22.8139 12.8897 22.964C12.9372 23.114 13.0221 23.2495 13.1363 23.3578L14.8838 24.9947C14.6913 25.5762 14.5329 26.1685 14.4094 26.7684L12.0638 27.3159C11.873 27.3604 11.7009 27.4636 11.5718 27.6109C11.4427 27.7582 11.3629 27.9422 11.3438 28.1372C11.3128 28.4522 11.3128 28.7531 11.2969 29.0625H7.3275C7.13477 28.5157 6.77756 28.042 6.30489 27.7063C5.83222 27.3706 5.26725 27.1894 4.6875 27.1875C3.13688 27.1875 1.875 28.4494 1.875 30C1.875 31.5506 3.13688 32.8125 4.6875 32.8125C5.26725 32.8106 5.83222 32.6294 6.30489 32.2937C6.77756 31.958 7.13477 31.4843 7.3275 30.9375H11.2978C11.3138 31.2469 11.3138 31.5478 11.3447 31.8628C11.3639 32.0578 11.4436 32.2418 11.5727 32.3891C11.7019 32.5364 11.8739 32.6396 12.0647 32.6841L14.4103 33.2316C14.5341 33.8316 14.6925 34.425 14.8847 35.0044L13.1372 36.6413C13.0229 36.7497 12.938 36.8854 12.8905 37.0356C12.8429 37.1857 12.8343 37.3456 12.8653 37.5H10.1409C9.94792 36.9532 9.59051 36.4795 9.1177 36.1438C8.6449 35.8082 8.07984 35.6269 7.5 35.625C5.94938 35.625 4.6875 36.8869 4.6875 38.4375C4.6875 39.9881 5.94938 41.25 7.5 41.25C8.07975 41.2481 8.64472 41.0669 9.11739 40.7312C9.59006 40.3955 9.94727 39.9218 10.14 39.375H13.7794C14.0906 39.9113 14.4281 40.4334 14.7919 40.9378C15.0263 41.2631 15.4388 41.4038 15.8259 41.2866L18.0984 40.5966C18.5081 41.0569 18.945 41.4938 19.4044 41.9025L18.7463 44.0625H8.4375C8.31437 44.0624 8.19243 44.0866 8.07869 44.1337C7.96494 44.1809 7.86163 44.25 7.77469 44.3372L4.02469 48.0872C3.9375 48.1741 3.86835 48.2774 3.82121 48.3912C3.77407 48.5049 3.74987 48.6269 3.75 48.75V52.6725C3.20322 52.8652 2.72948 53.2224 2.39377 53.6951C2.05807 54.1678 1.87686 54.7328 1.875 55.3125C1.875 56.8631 3.13688 58.125 4.6875 58.125C6.23813 58.125 7.5 56.8631 7.5 55.3125C7.49814 54.7328 7.31693 54.1678 6.98123 53.6951C6.64552 53.2224 6.17178 52.8652 5.625 52.6725V49.1381L8.82562 45.9375H20.1872C20.8678 46.3575 21.5634 46.7503 22.2872 47.0775C22.3556 47.1084 22.4278 47.1225 22.5 47.1366V51.1744L19.2994 54.375H17.64C17.4473 53.8282 17.0901 53.3545 16.6174 53.0188C16.1447 52.6831 15.5798 52.5019 15 52.5C13.4494 52.5 12.1875 53.7619 12.1875 55.3125C12.1875 56.8631 13.4494 58.125 15 58.125C15.5798 58.1231 16.1447 57.9419 16.6174 57.6062C17.0901 57.2705 17.4473 56.7968 17.64 56.25H19.6875C19.9359 56.25 20.175 56.1516 20.3503 55.9753L24.1003 52.2253C24.1875 52.1384 24.2566 52.0351 24.3038 51.9213C24.3509 51.8076 24.3751 51.6856 24.375 51.5625V45.7781L24.9947 45.1163C25.575 45.3084 26.1675 45.4669 26.7684 45.5906L27.3159 47.9363C27.3604 48.127 27.4636 48.2991 27.6109 48.4282C27.7582 48.5573 27.9422 48.6371 28.1372 48.6563C28.4522 48.6872 28.7531 48.6872 29.0625 48.7031V52.6734C28.5157 52.8662 28.042 53.2234 27.7063 53.696C27.3706 54.1687 27.1894 54.7337 27.1875 55.3134C27.1875 56.8641 28.4494 58.1259 30 58.1259C31.5506 58.1259 32.8125 56.8641 32.8125 55.3134C32.8106 54.7337 32.6294 54.1687 32.2937 53.696C31.958 53.2234 31.4843 52.8662 30.9375 52.6734V48.7031C31.2469 48.6872 31.5488 48.6872 31.8628 48.6563C32.0578 48.6371 32.2418 48.5573 32.3891 48.4282C32.5364 48.2991 32.6396 48.127 32.6841 47.9363L33.2316 45.5906C33.8316 45.4669 34.425 45.3084 35.0044 45.1163L35.625 45.7791V51.5625C35.625 51.8109 35.7234 52.05 35.8997 52.2253L39.6497 55.9753C39.7366 56.0625 39.8399 56.1316 39.9537 56.1788C40.0674 56.2259 40.1894 56.2501 40.3125 56.25H42.36C42.5527 56.7968 42.9099 57.2705 43.3826 57.6062C43.8553 57.9419 44.4203 58.1231 45 58.125C46.5506 58.125 47.8125 56.8631 47.8125 55.3125C47.8125 53.7619 46.5506 52.5 45 52.5C44.4203 52.5019 43.8553 52.6831 43.3826 53.0188C42.9099 53.3545 42.5527 53.8282 42.36 54.375H40.7006L37.5 51.1744V47.1366C37.5713 47.1225 37.6434 47.1094 37.7128 47.0784C38.4364 46.7437 39.1379 46.3629 39.8128 45.9384H51.1744L54.375 49.1381V52.6725C53.8282 52.8652 53.3545 53.2224 53.0188 53.6951C52.6831 54.1678 52.5019 54.7328 52.5 55.3125C52.5 56.8631 53.7619 58.125 55.3125 58.125C56.8631 58.125 58.125 56.8631 58.125 55.3125C58.1231 54.7328 57.9419 54.1678 57.6062 53.6951C57.2705 53.2224 56.7968 52.8652 56.25 52.6725V48.75C56.2501 48.6269 56.2259 48.5049 56.1788 48.3912C56.1316 48.2774 56.0625 48.1741 55.9753 48.0872L52.2253 44.3372C52.1384 44.25 52.0351 44.1809 51.9213 44.1337C51.8076 44.0866 51.6856 44.0624 51.5625 44.0625H41.2528L40.5966 41.9025C41.0569 41.4928 41.4938 41.0559 41.9025 40.5966L44.1741 41.2875C44.3611 41.3444 44.5613 41.3413 44.7465 41.2788C44.9318 41.2162 45.0929 41.0974 45.2072 40.9388C45.5709 40.4344 45.9094 39.9113 46.2206 39.375H49.86C50.0527 39.9218 50.4099 40.3955 50.8826 40.7312C51.3553 41.0669 51.9203 41.2481 52.5 41.25C54.0506 41.25 55.3125 39.9881 55.3125 38.4375C55.3125 36.8869 54.0506 35.625 52.5 35.625C51.9203 35.6269 51.3553 35.8081 50.8826 36.1438C50.4099 36.4795 50.0527 36.9532 49.86 37.5H47.1356C47.1666 37.3457 47.1579 37.1861 47.1103 37.036C47.0628 36.886 46.978 36.7505 46.8638 36.6422L45.1163 35.0053C45.3084 34.425 45.4669 33.8325 45.5906 33.2316L47.9363 32.6841C48.127 32.6396 48.2991 32.5364 48.4282 32.3891C48.5573 32.2418 48.6371 32.0578 48.6563 31.8628C48.6872 31.5478 48.6872 31.2469 48.7031 30.9375H52.6734C52.8662 31.4843 53.2234 31.958 53.696 32.2937C54.1687 32.6294 54.7337 32.8106 55.3134 32.8125C56.8641 32.8125 58.1259 31.5506 58.1259 30C58.1259 28.4494 56.8641 27.1875 55.3134 27.1875C54.7337 27.1894 54.1687 27.3706 53.696 27.7063C53.2234 28.042 52.8662 28.5157 52.6734 29.0625H48.7031C48.6872 28.7531 48.6872 28.4513 48.6563 28.1372C48.6371 27.9422 48.5573 27.7582 48.4282 27.6109C48.2991 27.4636 48.127 27.3604 47.9363 27.3159L45.5906 26.7684C45.4671 26.1688 45.3088 25.5768 45.1163 24.9956L46.8638 23.3588C46.978 23.2503 47.0629 23.1146 47.1105 22.9644C47.158 22.8143 47.1667 22.6545 47.1356 22.5H49.86C50.0527 23.0468 50.4099 23.5205 50.8826 23.8562C51.3553 24.1919 51.9203 24.3731 52.5 24.375C54.0506 24.375 55.3125 23.1131 55.3125 21.5625C55.3125 20.0119 54.0506 18.75 52.5 18.75C51.9203 18.7519 51.3553 18.9331 50.8826 19.2688C50.4099 19.6045 50.0527 20.0782 49.86 20.625H46.2206C45.9091 20.0877 45.5712 19.5661 45.2081 19.0622C45.0937 18.9034 44.9325 18.7844 44.7471 18.7218C44.5616 18.6593 44.3613 18.6564 44.1741 18.7134L41.9016 19.4034C41.4919 18.9432 41.0559 18.5071 40.5956 18.0975L41.2519 15.9375H51.5625ZM55.3125 3.75C55.8291 3.75 56.25 4.17094 56.25 4.6875C56.25 5.20406 55.8291 5.625 55.3125 5.625C54.7959 5.625 54.375 5.20406 54.375 4.6875C54.375 4.17094 54.7959 3.75 55.3125 3.75ZM45 3.75C45.5166 3.75 45.9375 4.17094 45.9375 4.6875C45.9375 5.20406 45.5166 5.625 45 5.625C44.4834 5.625 44.0625 5.20406 44.0625 4.6875C44.0625 4.17094 44.4834 3.75 45 3.75ZM15 5.625C14.4834 5.625 14.0625 5.20406 14.0625 4.6875C14.0625 4.17094 14.4834 3.75 15 3.75C15.5166 3.75 15.9375 4.17094 15.9375 4.6875C15.9375 5.20406 15.5166 5.625 15 5.625ZM4.6875 3.75C5.20406 3.75 5.625 4.17094 5.625 4.6875C5.625 5.20406 5.20406 5.625 4.6875 5.625C4.17094 5.625 3.75 5.20406 3.75 4.6875C3.75 4.17094 4.17094 3.75 4.6875 3.75ZM7.5 22.5C6.98344 22.5 6.5625 22.0791 6.5625 21.5625C6.5625 21.0459 6.98344 20.625 7.5 20.625C8.01656 20.625 8.4375 21.0459 8.4375 21.5625C8.4375 22.0791 8.01656 22.5 7.5 22.5ZM7.5 39.375C6.98344 39.375 6.5625 38.9541 6.5625 38.4375C6.5625 37.9209 6.98344 37.5 7.5 37.5C8.01656 37.5 8.4375 37.9209 8.4375 38.4375C8.4375 38.9541 8.01656 39.375 7.5 39.375ZM4.6875 56.25C4.17094 56.25 3.75 55.8291 3.75 55.3125C3.75 54.7959 4.17094 54.375 4.6875 54.375C5.20406 54.375 5.625 54.7959 5.625 55.3125C5.625 55.8291 5.20406 56.25 4.6875 56.25ZM15 56.25C14.4834 56.25 14.0625 55.8291 14.0625 55.3125C14.0625 54.7959 14.4834 54.375 15 54.375C15.5166 54.375 15.9375 54.7959 15.9375 55.3125C15.9375 55.8291 15.5166 56.25 15 56.25ZM45 54.375C45.5166 54.375 45.9375 54.7959 45.9375 55.3125C45.9375 55.8291 45.5166 56.25 45 56.25C44.4834 56.25 44.0625 55.8291 44.0625 55.3125C44.0625 54.7959 44.4834 54.375 45 54.375ZM55.3125 56.25C54.7959 56.25 54.375 55.8291 54.375 55.3125C54.375 54.7959 54.7959 54.375 55.3125 54.375C55.8291 54.375 56.25 54.7959 56.25 55.3125C56.25 55.8291 55.8291 56.25 55.3125 56.25ZM52.5 37.5C53.0166 37.5 53.4375 37.9209 53.4375 38.4375C53.4375 38.9541 53.0166 39.375 52.5 39.375C51.9834 39.375 51.5625 38.9541 51.5625 38.4375C51.5625 37.9209 51.9834 37.5 52.5 37.5ZM52.5 20.625C53.0166 20.625 53.4375 21.0459 53.4375 21.5625C53.4375 22.0791 53.0166 22.5 52.5 22.5C51.9834 22.5 51.5625 22.0791 51.5625 21.5625C51.5625 21.0459 51.9834 20.625 52.5 20.625ZM30 3.75C30.5166 3.75 30.9375 4.17094 30.9375 4.6875C30.9375 5.20406 30.5166 5.625 30 5.625C29.4834 5.625 29.0625 5.20406 29.0625 4.6875C29.0625 4.17094 29.4834 3.75 30 3.75ZM4.6875 30.9375C4.17094 30.9375 3.75 30.5166 3.75 30C3.75 29.4834 4.17094 29.0625 4.6875 29.0625C5.20406 29.0625 5.625 29.4834 5.625 30C5.625 30.5166 5.20406 30.9375 4.6875 30.9375ZM30 56.25C29.4834 56.25 29.0625 55.8291 29.0625 55.3125C29.0625 54.7959 29.4834 54.375 30 54.375C30.5166 54.375 30.9375 54.7959 30.9375 55.3125C30.9375 55.8291 30.5166 56.25 30 56.25ZM55.3125 29.0625C55.8291 29.0625 56.25 29.4834 56.25 30C56.25 30.5166 55.8291 30.9375 55.3125 30.9375C54.7959 30.9375 54.375 30.5166 54.375 30C54.375 29.4834 54.7959 29.0625 55.3125 29.0625ZM40.8656 21.0741C40.9834 21.2171 41.1409 21.322 41.3183 21.3756C41.4957 21.4291 41.6849 21.4289 41.8622 21.375L44.0663 20.7056C44.4393 21.2695 44.7786 21.8549 45.0825 22.4587L43.3884 24.045C43.2531 24.1717 43.1584 24.3357 43.1163 24.5163C43.0742 24.6969 43.0867 24.8859 43.1522 25.0594C43.4709 25.9078 43.7081 26.7947 43.8572 27.6956C43.8875 27.8783 43.9713 28.048 44.0979 28.1831C44.2246 28.3183 44.3884 28.4129 44.5688 28.455L46.8441 28.9856C46.8841 29.6613 46.8838 30.3387 46.8431 31.0144L44.5678 31.545C44.3875 31.5871 44.2236 31.6817 44.097 31.8169C43.9704 31.952 43.8866 32.1217 43.8563 32.3044C43.7071 33.2039 43.471 34.0868 43.1513 34.9406C43.0181 35.295 43.1119 35.6963 43.3875 35.955L45.0816 37.5413C44.7778 38.1452 44.4384 38.7306 44.0653 39.2944L41.8622 38.6241C41.6849 38.5701 41.4957 38.5699 41.3183 38.6235C41.1409 38.6771 40.9834 38.782 40.8656 38.925C40.2832 39.6326 39.6336 40.2822 38.9259 40.8647C38.7829 40.9825 38.678 41.14 38.6244 41.3174C38.5709 41.4947 38.5711 41.684 38.625 41.8613L39.2944 44.0653C38.7305 44.4383 38.1451 44.7777 37.5413 45.0816L35.955 43.3875C35.8282 43.2522 35.6642 43.1576 35.4836 43.1156C35.3031 43.0735 35.1141 43.0859 34.9406 43.1513C34.0922 43.47 33.2053 43.7072 32.3044 43.8563C32.1217 43.8866 31.952 43.9704 31.8169 44.097C31.6817 44.2236 31.5871 44.3875 31.545 44.5678L31.0144 46.8431C30.3388 46.8853 29.6612 46.8853 28.9856 46.8431L28.455 44.5678C28.4129 44.3875 28.3183 44.2236 28.1831 44.097C28.048 43.9704 27.8783 43.8866 27.6956 43.8563C26.7961 43.7071 25.9132 43.471 25.0594 43.1513C24.8859 43.0859 24.6969 43.0735 24.5164 43.1156C24.3358 43.1576 24.1718 43.2522 24.045 43.3875L22.4578 45.0816C21.8537 44.7781 21.2683 44.4387 20.7047 44.0653L21.375 41.8622C21.4291 41.6849 21.4293 41.4956 21.3757 41.3182C21.3222 41.1409 21.2172 40.9833 21.0741 40.8656C20.3664 40.2832 19.7168 39.6336 19.1344 38.9259C19.0169 38.7825 18.8594 38.6773 18.6819 38.6237C18.5044 38.5701 18.315 38.5706 18.1378 38.625L15.9338 39.2944C15.5608 38.7305 15.2214 38.1451 14.9175 37.5413L16.6116 35.955C16.7469 35.8283 16.8416 35.6643 16.8837 35.4837C16.9258 35.3031 16.9133 35.1141 16.8478 34.9406C16.5276 34.0869 16.2915 33.204 16.1428 32.3044C16.1125 32.1217 16.0287 31.952 15.9021 31.8169C15.7754 31.6817 15.6116 31.5871 15.4312 31.545L13.1559 31.0144C13.1159 30.3387 13.1162 29.6613 13.1569 28.9856L15.4322 28.455C15.6125 28.4129 15.7764 28.3183 15.903 28.1831C16.0296 28.048 16.1134 27.8783 16.1438 27.6956C16.2929 26.7961 16.529 25.9132 16.8488 25.0594C16.9137 24.8858 16.9259 24.697 16.8839 24.5165C16.8419 24.336 16.7474 24.172 16.6125 24.045L14.9184 22.4587C15.2213 21.8559 15.5616 21.27 15.9347 20.7056L18.1378 21.375C18.315 21.4296 18.5045 21.4301 18.682 21.3765C18.8595 21.3229 19.017 21.2176 19.1344 21.0741C19.7171 20.3667 20.3667 19.7171 21.0741 19.1344C21.2171 19.0166 21.322 18.8591 21.3756 18.6817C21.4291 18.5043 21.4289 18.3151 21.375 18.1378L20.7056 15.9338C21.2695 15.5608 21.8549 15.2214 22.4587 14.9175L24.045 16.6116C24.3038 16.8872 24.705 16.9809 25.0594 16.8478C25.9078 16.5291 26.7947 16.2919 27.6956 16.1428C27.8783 16.1125 28.048 16.0287 28.1831 15.9021C28.3183 15.7754 28.4129 15.6116 28.455 15.4312L28.9856 13.1559C29.6612 13.1137 30.3388 13.1137 31.0144 13.1559L31.545 15.4312C31.5871 15.6116 31.6817 15.7754 31.8169 15.9021C31.952 16.0287 32.1217 16.1125 32.3044 16.1428C33.2039 16.292 34.0868 16.5281 34.9406 16.8478C35.295 16.98 35.6953 16.8872 35.955 16.6116L37.5422 14.9175C38.1441 15.2194 38.73 15.5597 39.2953 15.9338L38.625 18.1369C38.5709 18.3141 38.5707 18.5034 38.6243 18.6808C38.6778 18.8582 38.7828 19.0157 38.9259 19.1334C39.6309 19.7147 40.2834 20.3672 40.8656 21.0741Z" fill="white"/>
<path d="M30 19.6875C25.8066 19.6875 21.5625 20.9756 21.5625 23.4375V37.5C21.5625 39.9619 25.8066 41.25 30 41.25C34.1934 41.25 38.4375 39.9619 38.4375 37.5V23.4375C38.4375 20.9756 34.1934 19.6875 30 19.6875ZM30 39.375C25.7372 39.375 23.4375 38.0447 23.4375 37.5V35.25C25.065 36.1153 27.5381 36.5625 30 36.5625C32.4619 36.5625 34.935 36.1153 36.5625 35.25V37.5C36.5625 38.0447 34.2628 39.375 30 39.375ZM30 34.6875C25.7372 34.6875 23.4375 33.3572 23.4375 32.8125V30.5625C25.065 31.4278 27.5381 31.875 30 31.875C32.4619 31.875 34.935 31.4278 36.5625 30.5625V32.8125C36.5625 33.3572 34.2628 34.6875 30 34.6875ZM30 30C25.7372 30 23.4375 28.6697 23.4375 28.125V25.875C25.065 26.7403 27.5381 27.1875 30 27.1875C32.4619 27.1875 34.935 26.7403 36.5625 25.875V28.125C36.5625 28.6697 34.2628 30 30 30ZM30 25.3125C25.7372 25.3125 23.4375 23.9822 23.4375 23.4375C23.4375 22.8928 25.7372 21.5625 30 21.5625C34.2628 21.5625 36.5625 22.8928 36.5625 23.4375C36.5625 23.9822 34.2628 25.3125 30 25.3125Z" fill="white"/>
</svg>
