<svg width="37" height="49" viewBox="0 0 37 49" fill="none" xmlns="http://www.w3.org/2000/svg">
<path fill-rule="evenodd" clip-rule="evenodd" d="M0 25.5472C0.5331 25.4561 0.915193 25.336 1.2991 25.3331C6.26802 25.2984 10.1435 23.5175 13.2893 20.5909C15.9111 18.149 17.7142 15.4119 18.371 12.1815C19.0824 8.69072 20.0213 5.23175 20.8764 1.75977C20.9528 1.44729 21.0256 1.07839 21.2749 0.862833C21.626 0.560481 22.1719 0.164095 22.5776 0.201708C22.9633 0.237875 23.4509 0.741312 23.5765 1.10732C23.762 1.65126 23.642 2.25597 23.6911 2.83174C23.9931 6.29504 24.0604 9.78439 24.6754 13.213C25.5324 17.9927 28.5272 21.8886 33.4561 24.792C34.1712 25.213 34.9189 25.6369 35.4739 26.175C35.8905 26.5787 36.3345 27.2354 36.1908 27.655C36.0525 28.0644 35.2337 28.4072 34.6242 28.6213C33.0085 29.1884 31.2527 29.5342 29.7226 30.2098C24.8301 32.3667 22.9997 36.17 21.8316 40.1845C21.1966 42.3646 21.0693 44.6388 20.7108 46.8695C20.5689 47.7491 20.6763 48.7791 19.1625 48.9831C18.2073 49.1118 17.7924 48.523 17.505 46.9939C17.001 44.3219 16.6389 41.621 15.8638 38.9968C15.2597 36.9498 14.33 34.9201 13.1692 33.0279C10.995 29.4807 7.40517 27.3627 2.30524 27.1544C1.07529 27.1067 0.0218334 27.0242 0 25.5472ZM30.4758 27.0618C29.0967 25.7642 27.7594 24.6445 26.6313 23.4047C25.4505 22.107 24.3516 20.7414 23.4327 19.3179C22.5794 17.9971 22.0118 16.5605 21.1129 14.7638C18.5493 19.5161 15.0141 23.1096 10.3327 25.6152C12.2504 27.3222 14.31 28.8109 15.8165 30.5931C17.2975 32.3436 18.2146 34.3935 19.47 36.4608C23.7311 29.7165 24.4316 29.7078 30.4758 27.0618Z" fill="#1D7D57"/>
</svg>
