<svg width="37" height="49" viewBox="0 0 37 49" fill="none" xmlns="http://www.w3.org/2000/svg">
<path fill-rule="evenodd" clip-rule="evenodd" d="M30.4758 27.0615C24.4316 29.7075 23.7311 29.7161 19.4681 36.4605C18.2145 34.3946 17.2957 32.3447 15.8147 30.5928C14.3081 28.8091 12.2485 27.3205 10.3308 25.6149C15.0123 23.1092 18.5475 19.5157 21.1111 14.7635C22.0099 16.5602 22.5794 17.9967 23.4309 19.3175C24.3497 20.7411 25.4468 22.1067 26.6295 23.4044C27.7594 24.6441 29.0967 25.7639 30.4758 27.0615Z" fill="white"/>
<path fill-rule="evenodd" clip-rule="evenodd" d="M0 25.5469C0.5331 25.4558 0.915193 25.3357 1.2991 25.3328C6.26802 25.2981 10.1435 23.5173 13.2893 20.5907C15.9111 18.1487 17.7142 15.4117 18.371 12.1813C19.0824 8.69047 20.0213 5.2315 20.8764 1.75952C20.9528 1.44704 21.0256 1.07814 21.2749 0.862589C21.626 0.560237 22.1719 0.163851 22.5776 0.201464C22.9633 0.237631 23.4509 0.741068 23.5765 1.10707C23.762 1.65102 23.642 2.25572 23.6911 2.83149C23.9931 6.2948 24.0604 9.78414 24.6754 13.2127C25.5324 17.9925 28.5272 21.8883 33.4561 24.7918C34.1712 25.2128 34.9189 25.6366 35.4739 26.1748C35.8905 26.5784 36.3345 27.2352 36.1908 27.6547C36.0525 28.0641 35.2337 28.407 34.6242 28.6211C33.0085 29.1882 31.2527 29.5339 29.7226 30.2095C24.8301 32.3665 22.9997 36.1698 21.8316 40.1842C21.1966 42.3644 21.0693 44.6385 20.7108 46.8693C20.5689 47.7488 20.6763 48.7789 19.1625 48.9828C18.2073 49.1116 17.7924 48.5228 17.505 46.9937C17.001 44.3217 16.6389 41.6208 15.8638 38.9965C15.2597 36.9495 14.33 34.9199 13.1692 33.0276C10.995 29.4804 7.40517 27.3625 2.30524 27.1542C1.07529 27.1064 0.0218334 27.024 0 25.5469ZM30.4758 27.0616C29.0967 25.7639 27.7594 24.6442 26.6313 23.4044C25.4505 22.1068 24.3516 20.7411 23.4327 19.3176C22.5794 17.9968 22.0118 16.5603 21.1129 14.7635C18.5493 19.5158 15.0141 23.1093 10.3327 25.6149C12.2504 27.322 14.31 28.8106 15.8165 30.5929C17.2975 32.3434 18.2146 34.3933 19.47 36.4605C23.7311 29.7162 24.4316 29.7075 30.4758 27.0616Z" fill="#222222"/>
</svg>
