<svg width="99" height="50" viewBox="0 0 99 50" fill="none" xmlns="http://www.w3.org/2000/svg">
<path d="M3.37769 28.938H6.15506V42.5563H3.37769V28.938Z" fill="#B0A59E"/>
<path d="M7.76597 37.89C7.76414 36.9119 8.05252 35.9551 8.59463 35.1409C9.13673 34.3267 9.90819 33.6916 10.8114 33.316C11.7145 32.9404 12.7088 32.8412 13.6684 33.0309C14.6281 33.2206 15.5098 33.6907 16.2021 34.3818C16.8944 35.0727 17.3662 35.9536 17.5577 36.9128C17.7492 37.8721 17.6519 38.8666 17.278 39.7705C16.904 40.6743 16.2704 41.447 15.4572 41.9906C14.644 42.5343 13.6879 42.8244 12.7097 42.8244C12.0591 42.8319 11.4137 42.7094 10.8112 42.4641C10.2087 42.2189 9.66113 41.8559 9.20069 41.3963C8.74026 40.9368 8.37619 40.3899 8.12983 39.7877C7.88347 39.1857 7.75976 38.5405 7.76597 37.89ZM14.8575 37.89C14.8466 37.4677 14.7114 37.058 14.4688 36.7123C14.2263 36.3664 13.8872 36.0998 13.4938 35.9457C13.1005 35.7916 12.6705 35.757 12.2577 35.846C11.8447 35.935 11.4673 36.1438 11.1724 36.4463C10.8776 36.7487 10.6784 37.1315 10.6 37.5466C10.5215 37.9616 10.5671 38.3906 10.7312 38.7798C10.8953 39.169 11.1705 39.5013 11.5224 39.7349C11.8743 39.9685 12.2873 40.0932 12.7097 40.0933C12.9986 40.1015 13.2862 40.0496 13.5541 39.941C13.8221 39.8324 14.0646 39.6694 14.2665 39.4624C14.4683 39.2553 14.625 39.0087 14.7267 38.7381C14.8284 38.4675 14.873 38.1787 14.8575 37.89Z" fill="#B0A59E"/>
<path d="M28.8183 33.2241V42.0931C28.8183 45.2316 26.365 46.5555 23.8839 46.5555C23.0114 46.6204 22.1379 46.4439 21.359 46.0455C20.5801 45.6471 19.9259 45.042 19.4679 44.2966L21.8564 42.9172C22.046 43.2991 22.3459 43.6155 22.7172 43.8251C23.0886 44.0347 23.5144 44.128 23.9395 44.0928C24.2191 44.1395 24.5058 44.1213 24.7773 44.0395C25.0489 43.9578 25.298 43.8149 25.5056 43.6217C25.713 43.4284 25.8734 43.1901 25.9743 42.9251C26.0752 42.6601 26.1138 42.3755 26.0872 42.0931V41.2322C25.7608 41.6339 25.3441 41.953 24.8712 42.1637C24.3984 42.3744 23.8825 42.4708 23.3655 42.445C22.1083 42.445 20.9027 41.9456 20.0137 41.0567C19.1248 40.1677 18.6254 38.9621 18.6254 37.7049C18.6254 36.4477 19.1248 35.2421 20.0137 34.3532C20.9027 33.4643 22.1083 32.9649 23.3655 32.9649C23.8822 32.9413 24.3973 33.0386 24.8699 33.2491C25.3424 33.4597 25.7593 33.7776 26.0872 34.1776V33.2519L28.8183 33.2241ZM26.0872 37.7049C26.1058 37.2547 25.9891 36.8092 25.7524 36.4257C25.5157 36.0422 25.1697 35.7383 24.7589 35.5531C24.3481 35.3678 23.8912 35.3097 23.4471 35.3862C23.003 35.4625 22.5919 35.6701 22.2667 35.982C21.9414 36.2939 21.7169 36.696 21.622 37.1365C21.527 37.577 21.5661 38.0359 21.734 38.454C21.9019 38.8722 22.1911 39.2306 22.5643 39.4831C22.9375 39.7358 23.3777 39.8709 23.8283 39.8713C24.1225 39.8921 24.4177 39.8511 24.695 39.7508C24.9723 39.6505 25.2256 39.4933 25.4384 39.2892C25.6511 39.0851 25.8189 38.8386 25.9307 38.5658C26.0424 38.2929 26.0958 37.9997 26.0872 37.7049Z" fill="#B0A59E"/>
<path d="M30.42 37.89C30.4182 36.9119 30.7066 35.9551 31.2487 35.1409C31.7908 34.3267 32.5623 33.6916 33.4654 33.316C34.3686 32.9404 35.3629 32.8412 36.3225 33.0309C37.2821 33.2206 38.1638 33.6907 38.8562 34.3818C39.5485 35.0727 40.0202 35.9536 40.2118 36.9128C40.4033 37.8721 40.3059 38.8666 39.932 39.7705C39.5581 40.6743 38.9244 41.447 38.1113 41.9906C37.2981 42.5343 36.3419 42.8244 35.3638 42.8244C34.7133 42.8319 34.0678 42.7094 33.4652 42.4641C32.8627 42.2189 32.3151 41.8559 31.8547 41.3963C31.3943 40.9368 31.0302 40.3899 30.7839 39.7877C30.5375 39.1857 30.4138 38.5405 30.42 37.89ZM37.5116 37.89C37.5006 37.4677 37.3654 37.058 37.1229 36.7123C36.8803 36.3664 36.5412 36.0998 36.1479 35.9457C35.7546 35.7916 35.3246 35.757 34.9117 35.846C34.4988 35.935 34.1213 36.1438 33.8264 36.4463C33.5316 36.7487 33.3325 37.1315 33.2539 37.5466C33.1755 37.9616 33.2212 38.3906 33.3852 38.7798C33.5493 39.169 33.8245 39.5013 34.1764 39.7349C34.5284 39.9685 34.9413 40.0932 35.3638 40.0933C35.6512 40.0988 35.9367 40.0451 36.2025 39.9353C36.4682 39.8255 36.7085 39.6622 36.9083 39.4554C37.1081 39.2487 37.2631 39.0029 37.3638 38.7336C37.4643 38.4643 37.5084 38.1771 37.4931 37.89H37.5116Z" fill="#B0A59E"/>
<path d="M41.5944 30.7245C41.5944 30.3912 41.6932 30.0655 41.8783 29.7884C42.0635 29.5113 42.3266 29.2954 42.6345 29.1678C42.9424 29.0403 43.2811 29.0069 43.608 29.0719C43.9348 29.1369 44.235 29.2974 44.4707 29.533C44.7064 29.7687 44.8668 30.0689 44.9318 30.3957C44.9969 30.7226 44.9635 31.0614 44.836 31.3693C44.7085 31.6771 44.4925 31.9404 44.2154 32.1255C43.9383 32.3106 43.6126 32.4094 43.2793 32.4094C42.8332 32.407 42.406 32.2287 42.0905 31.9132C41.775 31.5978 41.5968 31.1707 41.5944 30.7245ZM41.8813 33.2241H44.6587V42.556H41.8813V33.2241Z" fill="#B0A59E"/>
<path d="M56.7679 37.8902C56.8015 38.5071 56.7129 39.1245 56.507 39.707C56.301 40.2894 55.982 40.8254 55.5681 41.284C55.1542 41.7426 54.6537 42.1149 54.0953 42.3793C53.537 42.6437 52.9319 42.7951 52.3148 42.8247C51.7968 42.8495 51.2795 42.7605 50.7997 42.5637C50.3198 42.367 49.889 42.0674 49.5375 41.686V46.3149H46.7601V33.2242H49.5375V34.1037C49.889 33.7224 50.3198 33.4227 50.7997 33.226C51.2795 33.0292 51.7968 32.9402 52.3148 32.965C52.9311 32.9946 53.5354 33.1457 54.0931 33.4095C54.6508 33.6734 55.1509 34.0448 55.5646 34.5025C55.9785 34.9601 56.2977 35.4949 56.5042 36.0763C56.7107 36.6576 56.8003 37.2741 56.7679 37.8902ZM53.9905 37.8902C53.9795 37.4557 53.8413 37.0339 53.593 36.6772C53.3446 36.3205 52.9972 36.0443 52.5936 35.8831C52.1899 35.7219 51.7478 35.6826 51.3221 35.7701C50.8963 35.8576 50.5055 36.068 50.1982 36.3754C49.8908 36.6827 49.6804 37.0734 49.5929 37.4992C49.5054 37.925 49.5447 38.3671 49.7059 38.7707C49.8672 39.1743 50.1433 39.5219 50.5 39.7701C50.8568 40.0184 51.2786 40.1567 51.7131 40.1676C52.0163 40.187 52.3201 40.1411 52.6042 40.0332C52.8883 39.9253 53.1459 39.7578 53.3599 39.5422C53.5739 39.3264 53.7392 39.0674 53.8448 38.7824C53.9503 38.4975 53.9938 38.1933 53.972 37.8902H53.9905Z" fill="#B0A59E"/>
<path d="M65.4148 39.7601C65.4148 41.908 63.5632 42.8244 61.5264 42.8244C60.7128 42.8965 59.8963 42.7234 59.1818 42.3274C58.4675 41.9314 57.8879 41.3307 57.5178 40.6026L59.9434 39.2232C60.0418 39.5599 60.2526 39.8529 60.5406 40.0533C60.8286 40.2537 61.1764 40.3495 61.5264 40.3248C62.2023 40.3248 62.5356 40.1119 62.5356 39.7416C62.5356 38.714 57.9066 39.2602 57.9066 36.0385C57.9066 34.0017 59.6286 32.9741 61.6098 32.9741C62.3409 32.9519 63.0646 33.1255 63.706 33.4772C64.3473 33.8288 64.8829 34.3455 65.2574 34.9738L62.8226 36.2514C62.7151 36.0069 62.5388 35.7989 62.3153 35.6526C62.0917 35.5063 61.8307 35.4281 61.5635 35.4274C61.0821 35.4274 60.7859 35.6126 60.7859 35.9551C60.8229 37.0197 65.4148 36.3069 65.4148 39.7601Z" fill="#B0A59E"/>
<path d="M75.6355 33.2241V42.5561H72.858V41.6859C72.535 42.0726 72.125 42.3773 71.6615 42.5752C71.1982 42.7731 70.6945 42.8585 70.1917 42.8246C68.3402 42.8246 66.7015 41.4822 66.7015 38.9548V33.2241H69.4789V38.5475C69.4545 38.7743 69.481 39.0037 69.5562 39.2191C69.6315 39.4345 69.7538 39.6304 69.9143 39.7927C70.0747 39.9549 70.2693 40.0793 70.4838 40.157C70.6983 40.2347 70.9275 40.2635 71.1546 40.2417C72.173 40.2417 72.8858 39.6491 72.8858 38.3253V33.2241H75.6355Z" fill="#B0A59E"/>
<path d="M91.6886 36.8344V42.5558H88.9112V37.0752C88.9112 36.1494 88.4575 35.5383 87.5688 35.5383C86.6801 35.5383 86.1061 36.1957 86.1061 37.2973V42.5558H83.3287V37.0752C83.3287 36.1494 82.8843 35.5383 81.9863 35.5383C81.0883 35.5383 80.5328 36.1957 80.5328 37.2973V42.5558H77.7555V33.2239H80.5328V34.0849C80.8231 33.7046 81.2038 33.4029 81.6404 33.2073C82.077 33.0116 82.5555 32.9282 83.0325 32.9647C83.5115 32.9414 83.9884 33.0426 84.4167 33.2583C84.845 33.4741 85.2101 33.7971 85.4766 34.196C85.7864 33.779 86.1969 33.4473 86.6696 33.232C87.1424 33.0167 87.662 32.9247 88.1798 32.9647C90.2907 32.9647 91.6886 34.5015 91.6886 36.8344Z" fill="#B0A59E"/>
<path d="M94.0588 33.1685C95.2041 33.1685 96.1325 32.24 96.1325 31.0947C96.1325 29.9494 95.2041 29.021 94.0588 29.021C92.9135 29.021 91.985 29.9494 91.985 31.0947C91.985 32.24 92.9135 33.1685 94.0588 33.1685Z" fill="#B0A59E"/>
<path d="M34.8082 21.8742C40.1718 21.8742 44.5197 17.5262 44.5197 12.1627C44.5197 6.79917 40.1718 2.45117 34.8082 2.45117C29.4447 2.45117 25.0967 6.79917 25.0967 12.1627C25.0967 17.5262 29.4447 21.8742 34.8082 21.8742Z" fill="#B0A59E"/>
<path d="M56.518 21.8742C61.8815 21.8742 66.2294 17.5262 66.2294 12.1627C66.2294 6.79917 61.8815 2.45117 56.518 2.45117C51.1544 2.45117 46.8064 6.79917 46.8064 12.1627C46.8064 17.5262 51.1544 21.8742 56.518 21.8742Z" fill="#B0A59E"/>
<path d="M22.81 2.45117H3.39624V21.8649H22.81V2.45117Z" fill="#B0A59E"/>
</svg>
