<svg width="235" height="50" viewBox="0 0 235 50" fill="none" xmlns="http://www.w3.org/2000/svg">
<g clip-path="url(#clip0_32_11150)">
<path fill-rule="evenodd" clip-rule="evenodd" d="M25.6808 5.70875L28.9771 0L38.3221 5.39625L35.0271 11.1038C34.4483 12.105 35.3146 13.3225 36.4496 13.1038L42.7646 11.885L44.8083 22.4813L38.4933 23.6988C28.2783 25.6688 20.4796 14.7188 25.6808 5.70875Z" fill="#B0A59E"/>
<path fill-rule="evenodd" clip-rule="evenodd" d="M19.9708 44.2912L16.6746 49.9999L7.32832 44.6049L10.6246 38.8962C11.2033 37.8949 10.3371 36.6774 9.20082 36.8962L2.88707 38.1137L0.843323 27.5187L7.15832 26.3012C17.3733 24.3312 25.1708 35.2812 19.9708 44.2912Z" fill="#B0A59E"/>
<path fill-rule="evenodd" clip-rule="evenodd" d="M20.2558 5.70875L16.9608 0L7.61455 5.39625L10.9108 11.1038C11.4883 12.105 10.6233 13.3225 9.48705 13.1038L3.17205 11.885L1.1308 22.4813L7.44455 23.6988C17.6608 25.6688 25.4595 14.7188 20.257 5.70875H20.2558Z" fill="#B0A59E"/>
<path fill-rule="evenodd" clip-rule="evenodd" d="M25.4058 44.2912L28.6996 49.9999L38.0458 44.6049L34.7496 38.8962C34.1721 37.8949 35.0371 36.6774 36.1733 36.8962L42.4871 38.1137L44.5308 27.5187L38.2158 26.3012C28.0008 24.3312 20.2033 35.2812 25.4033 44.2912H25.4058Z" fill="#B0A59E"/>
<path d="M204.736 37.6912V27.0662C204.736 25.5937 205.075 24.2725 205.752 23.1037C206.453 21.9112 207.447 20.9762 208.733 20.2975C210.02 19.62 211.551 19.2812 213.327 19.2812C214.156 19.2732 214.982 19.3792 215.782 19.5962C216.531 19.7837 217.208 20.0525 217.816 20.4025C218.447 20.73 218.985 21.1275 219.43 21.595H219.5C219.976 21.1208 220.519 20.719 221.112 20.4025C221.764 20.044 222.46 19.7729 223.182 19.5962C223.994 19.3807 224.832 19.2748 225.672 19.2812C227.448 19.2812 228.98 19.6188 230.266 20.2975C231.551 20.9762 232.545 21.91 233.246 23.1037C233.948 24.2725 234.298 25.5925 234.298 27.0662V37.6912H228.827V27.2412C228.827 26.6575 228.676 26.1312 228.372 25.6637C228.093 25.1748 227.695 24.7645 227.215 24.4712C226.708 24.1629 226.124 24.0047 225.531 24.015C224.9 24.015 224.327 24.1675 223.813 24.4712C223.333 24.7641 222.934 25.1745 222.656 25.6637C222.372 26.1405 222.226 26.6866 222.235 27.2412V37.6912H216.8V27.2412C216.8 26.6575 216.647 26.1312 216.343 25.6637C216.058 25.1677 215.647 24.7562 215.151 24.4712C214.644 24.1629 214.06 24.0047 213.467 24.015C212.836 24.015 212.263 24.1675 211.75 24.4712C211.269 24.7641 210.87 25.1745 210.592 25.6637C210.309 26.1408 210.163 26.6867 210.171 27.2412V37.6912H204.736ZM192.847 38.1125C191.001 38.1125 189.398 37.7625 188.043 37.06C186.711 36.335 185.682 35.365 184.957 34.15C184.232 32.9112 183.87 31.5425 183.87 30.0462V19.7012H189.306V29.9062C189.306 30.5375 189.457 31.1225 189.761 31.66C190.065 32.1737 190.475 32.595 190.988 32.9225C191.526 33.2262 192.135 33.3787 192.812 33.3787C193.467 33.3787 194.051 33.2262 194.566 32.9225C195.103 32.595 195.525 32.1737 195.828 31.66C196.132 31.1225 196.285 30.5375 196.285 29.9062V19.7012H201.72V30.0462C201.72 31.5425 201.368 32.9112 200.667 34.15C199.966 35.365 198.95 36.3362 197.617 37.06C196.307 37.7612 194.717 38.1125 192.847 38.1125ZM166.361 37.6912V33.3787H175.023C175.257 33.3787 175.467 33.3312 175.655 33.2375C175.841 33.1212 175.993 32.9687 176.11 32.7825C176.224 32.5983 176.285 32.3857 176.285 32.1687C176.285 31.9518 176.224 31.7392 176.11 31.555C176 31.3747 175.843 31.2288 175.655 31.1337C175.465 31.0164 175.246 30.9556 175.023 30.9587H171.867C170.697 30.9587 169.633 30.7712 168.676 30.3975C167.766 30.0207 166.986 29.387 166.431 28.5737C165.893 27.7325 165.625 26.645 165.625 25.3125C165.625 24.2837 165.87 23.3487 166.361 22.5075C166.872 21.6688 167.583 20.9697 168.43 20.4725C169.313 19.9595 170.319 19.6932 171.341 19.7012H180.002V24.05H172.182C171.871 24.0438 171.57 24.157 171.341 24.3662C171.238 24.4664 171.157 24.5866 171.103 24.7192C171.049 24.8518 171.022 24.9942 171.025 25.1375C171.025 25.465 171.131 25.745 171.341 25.9788C171.57 26.188 171.871 26.3012 172.182 26.295H175.268C176.577 26.295 177.7 26.4937 178.635 26.89C179.593 27.265 180.33 27.8725 180.845 28.715C181.382 29.5562 181.651 30.6425 181.651 31.975C181.651 33.0275 181.382 33.9862 180.845 34.85C180.334 35.711 179.609 36.4244 178.74 36.92C177.875 37.435 176.893 37.6912 175.795 37.6912H166.361ZM154.518 19.2812C156.038 19.2812 157.382 19.5262 158.551 20.0175C159.699 20.4552 160.731 21.151 161.567 22.0512C162.419 22.9333 163.077 23.9848 163.496 25.1375C163.94 26.3062 164.162 27.6038 164.162 29.03C164.162 30.8062 163.788 32.385 163.04 33.7637C162.348 35.0851 161.305 36.1895 160.025 36.955C158.738 37.7262 157.242 38.1125 155.536 38.1125C154.811 38.1125 154.121 38.0187 153.466 37.8325C152.845 37.6501 152.255 37.3781 151.713 37.025C151.203 36.6785 150.762 36.2382 150.416 35.7275H150.31V45.3025H144.875V29.0287C144.875 27.0412 145.272 25.3225 146.067 23.8737C146.838 22.4477 148.008 21.2774 149.433 20.5063C150.883 19.6888 152.578 19.28 154.518 19.28V19.2812ZM154.518 23.98C153.677 23.98 152.941 24.19 152.31 24.6112C151.701 25.0087 151.233 25.57 150.906 26.295C150.58 26.995 150.416 27.7913 150.416 28.6787C150.416 29.5675 150.58 30.3625 150.906 31.0637C151.233 31.765 151.701 32.3262 152.31 32.7475C152.941 33.145 153.677 33.3437 154.518 33.3437C155.36 33.3437 156.085 33.1437 156.692 32.7475C157.303 32.3233 157.788 31.7414 158.096 31.0637C158.446 30.3625 158.621 29.5675 158.621 28.6787C158.621 27.7913 158.446 26.9962 158.096 26.295C157.768 25.57 157.301 25.0075 156.692 24.6112C156.085 24.19 155.36 23.98 154.518 23.98ZM136.615 37.6912V19.7012H142.086V37.6912H136.615ZM139.35 17.6675C138.485 17.6675 137.737 17.3525 137.106 16.7212C136.475 16.09 136.158 15.3412 136.158 14.4763C136.158 13.6113 136.475 12.8638 137.106 12.2325C137.737 11.5775 138.485 11.25 139.35 11.25C140.215 11.25 140.963 11.5775 141.595 12.2325C142.226 12.8638 142.541 13.6113 142.541 14.4763C142.541 15.3412 142.226 16.0887 141.595 16.7212C140.963 17.3525 140.215 17.6675 139.35 17.6675ZM124.725 38.1125C122.878 38.1125 121.218 37.7037 119.745 36.885C118.299 36.0925 117.089 34.931 116.238 33.5187C115.397 32.0925 114.976 30.4912 114.976 28.7137C114.976 26.9137 115.397 25.3125 116.238 23.91C117.089 22.4978 118.299 21.3362 119.745 20.5437C121.218 19.7012 122.878 19.2812 124.725 19.2812C126.572 19.2812 128.22 19.7012 129.67 20.5437C131.11 21.3307 132.31 22.4942 133.141 23.91C134.006 25.3125 134.438 26.9137 134.438 28.7137C134.438 30.4912 134.006 32.0925 133.141 33.5187C132.31 34.9345 131.11 36.098 129.67 36.885C128.197 37.7037 126.548 38.1125 124.725 38.1125ZM124.725 33.3787C125.59 33.3787 126.338 33.1675 126.97 32.7475C127.601 32.3267 128.109 31.7456 128.442 31.0637C128.793 30.3625 128.968 29.5675 128.968 28.6787C128.968 27.8137 128.793 27.0312 128.442 26.3287C128.109 25.6473 127.601 25.0667 126.97 24.6462C126.338 24.225 125.59 24.015 124.725 24.015C123.86 24.015 123.1 24.225 122.446 24.6462C121.814 25.0671 121.305 25.6481 120.972 26.33C120.615 27.0612 120.435 27.8663 120.447 28.68C120.447 29.5675 120.622 30.3625 120.972 31.0637C121.306 31.7456 121.814 32.3266 122.446 32.7475C123.1 33.1675 123.86 33.3787 124.725 33.3787ZM97.3108 44.8112V40.1462H106.287C106.638 40.1462 106.931 40.03 107.165 39.7962C107.279 39.6955 107.369 39.571 107.429 39.4314C107.49 39.2919 107.519 39.1408 107.515 38.9887V35.0262H107.41C106.966 35.5426 106.459 36.002 105.902 36.3937C105.387 36.7687 104.802 37.0487 104.148 37.2362C103.453 37.4318 102.732 37.5261 102.01 37.5162C100.42 37.5162 98.9933 37.1412 97.7308 36.3937C96.4921 35.6225 95.5095 34.5587 94.7845 33.2025C94.0845 31.8475 93.7333 30.3037 93.7333 28.5737C93.7333 26.8675 94.0958 25.3125 94.8208 23.91C95.5683 22.5075 96.6558 21.385 98.082 20.5437C99.507 19.7012 101.25 19.2812 103.307 19.2812C105.271 19.2812 106.966 19.69 108.392 20.5087C109.824 21.2861 110.995 22.4689 111.758 23.9087C112.553 25.3587 112.951 27.0662 112.951 29.03V39.55C112.951 41.1625 112.472 42.4375 111.513 43.3725C110.578 44.3312 109.281 44.81 107.621 44.81L97.3108 44.8112ZM103.342 32.9575C104.183 32.9575 104.908 32.77 105.517 32.3962C106.118 32.0062 106.602 31.4612 106.918 30.8187C107.251 30.1425 107.419 29.3973 107.41 28.6437C107.41 27.8025 107.247 27.0312 106.92 26.33C106.592 25.6287 106.125 25.0787 105.516 24.6812C104.908 24.26 104.183 24.05 103.341 24.05C102.523 24.05 101.798 24.2487 101.167 24.6462C100.56 25.0437 100.092 25.5812 99.7645 26.2587C99.4383 26.9375 99.2745 27.6962 99.2745 28.5387C99.2745 29.3575 99.437 30.105 99.7645 30.7837C100.092 31.4375 100.56 31.9637 101.168 32.3612C101.798 32.7587 102.523 32.9575 103.342 32.9575ZM82.6845 38.1125C80.8383 38.1125 79.1783 37.7037 77.7058 36.885C76.2596 36.0928 75.0493 34.9312 74.1983 33.5187C73.357 32.0925 72.9358 30.4912 72.9358 28.7137C72.9358 26.9137 73.357 25.3125 74.1983 23.91C75.0493 22.4975 76.2596 21.336 77.7058 20.5437C79.1783 19.7012 80.8383 19.2812 82.6845 19.2812C84.532 19.2812 86.1796 19.7012 87.6295 20.5437C89.0701 21.3308 90.2698 22.4943 91.1008 23.91C91.9658 25.3125 92.3983 26.9137 92.3983 28.7137C92.3983 30.4912 91.9658 32.0925 91.1008 33.5187C90.2698 34.9344 89.0701 36.0979 87.6295 36.885C86.157 37.7037 84.5083 38.1125 82.6845 38.1125ZM82.6845 33.3787C83.5495 33.3787 84.297 33.1675 84.9295 32.7475C85.5607 32.3264 86.0688 31.7454 86.402 31.0637C86.752 30.3625 86.927 29.5675 86.927 28.6787C86.927 27.8137 86.752 27.0312 86.402 26.3287C86.0687 25.6475 85.5606 25.0669 84.9295 24.6462C84.2983 24.225 83.5495 24.015 82.6845 24.015C81.8195 24.015 81.0596 24.225 80.4058 24.6462C79.7741 25.0671 79.2655 25.6481 78.9321 26.33C78.5749 27.0612 78.3951 27.8663 78.407 28.68C78.407 29.5675 78.5821 30.3625 78.9321 31.0637C79.2656 31.7456 79.7742 32.3266 80.4058 32.7475C81.0596 33.1675 81.8195 33.3787 82.6845 33.3787ZM65.2771 37.6912C63.7571 37.6912 62.4246 37.3537 61.2796 36.675C60.1659 36.0293 59.2457 35.0969 58.6146 33.975C57.9833 32.8525 57.6671 31.6125 57.6671 30.2575V13.1438H63.5583V30.6775C63.5583 31.24 63.7583 31.73 64.1546 32.1512C64.5521 32.5712 65.0421 32.7825 65.6271 32.7825H72.1145V37.6912H65.2771Z" fill="#B0A59E"/>
</g>
<defs>
<clipPath id="clip0_32_11150">
<rect width="233.75" height="50" fill="white" transform="translate(0.843323)"/>
</clipPath>
</defs>
</svg>
