<svg width="139" height="50" viewBox="0 0 139 50" fill="none" xmlns="http://www.w3.org/2000/svg">
<path d="M13.7784 21.525C13.7396 22.4365 13.7202 23.5905 13.7202 24.9869C13.7202 26.3833 13.7396 27.5469 13.7784 28.4779C13.8171 29.3895 13.8947 30.1167 14.0111 30.6598C14.1468 31.2028 14.3311 31.581 14.5638 31.7944C14.816 32.0077 15.1456 32.1144 15.553 32.1144C15.9602 32.1144 16.2802 32.0077 16.513 31.7944C16.7651 31.581 16.9494 31.2028 17.0657 30.6598C17.2015 30.1167 17.2887 29.3895 17.3276 28.4779C17.3664 27.5469 17.3857 26.3833 17.3857 24.9869C17.3857 23.5905 17.3664 22.4365 17.3276 21.525C17.2887 20.5941 17.2015 19.857 17.0657 19.3141C16.9494 18.771 16.7651 18.3928 16.513 18.1795C16.2802 17.9661 15.9602 17.8594 15.553 17.8594C15.1456 17.8594 14.816 17.9661 14.5638 18.1795C14.3311 18.3928 14.1468 18.771 14.0111 19.3141C13.8947 19.857 13.8171 20.5941 13.7784 21.525Z" fill="#B0A59E"/>
<path fill-rule="evenodd" clip-rule="evenodd" d="M14.809 3.37577C7.79436 3.52587 2.21862 9.31438 2.33117 16.3297L2.46947 24.9493L2.33117 33.5688C2.21862 40.5843 7.79436 46.3728 14.809 46.5228L23.4299 46.7073L32.0507 46.5228C39.0654 46.3728 44.6413 40.5843 44.5287 33.5688L44.3904 24.9493L44.5287 16.3297C44.6413 9.31438 39.0654 3.52587 32.0507 3.37577L23.4299 3.19141L14.809 3.37577ZM23.7278 35.9252L20.4695 38.7471L17.5021 35.547C17.2694 35.5859 17.0366 35.615 16.8039 35.6344C16.5905 35.6731 16.3481 35.6926 16.0766 35.6926H15.553C14.176 35.6926 13.0122 35.5083 12.0619 35.1398C11.1116 34.7713 10.3455 34.1603 9.76372 33.307C9.18192 32.4343 8.76489 31.3191 8.51277 29.9615C8.26064 28.5845 8.13458 26.9262 8.13458 24.9868C8.13458 23.0474 8.26064 21.3989 8.51277 20.0412C8.76489 18.6642 9.18192 17.5491 9.76372 16.6957C10.3455 15.8229 11.1116 15.1926 12.0619 14.8047C13.0122 14.3974 14.176 14.1937 15.553 14.1937C16.93 14.1937 18.0936 14.3974 19.0439 14.8047C19.9943 15.1926 20.7604 15.8229 21.3422 16.6957C21.924 17.5491 22.3411 18.6642 22.5932 20.0412C22.8453 21.3989 22.9714 23.0474 22.9714 24.9868C22.9714 26.9844 22.8356 28.6717 22.564 30.0487C22.2925 31.4258 21.8465 32.5507 21.2258 33.4234L23.7278 35.9252ZM32.9109 22.0776V20.914C32.9109 19.7309 32.7946 18.926 32.5618 18.4994C32.3291 18.0727 31.9509 17.8593 31.4272 17.8593C31.02 17.8593 30.6903 17.966 30.4382 18.1794C30.2054 18.3927 30.0212 18.7709 29.8854 19.314C29.769 19.8569 29.6915 20.594 29.6527 21.5249C29.6138 22.4364 29.5945 23.5904 29.5945 24.9868C29.5945 26.3832 29.6138 27.5468 29.6527 28.4778C29.6915 29.3894 29.769 30.1166 29.8854 30.6597C30.0212 31.2027 30.2054 31.5809 30.4382 31.7943C30.6903 32.0076 31.02 32.1143 31.4272 32.1143C31.7569 32.1143 32.0285 32.0367 32.2418 31.8815C32.4552 31.7069 32.62 31.4258 32.7364 31.0379C32.8528 30.65 32.9303 30.136 32.9691 29.496C33.0273 28.8366 33.0564 28.0124 33.0564 27.0232H38.2929V28.5651C38.2929 30.0197 38.0989 31.2125 37.7111 32.1433C37.3232 33.0743 36.8092 33.8113 36.1692 34.3543C35.5291 34.878 34.7922 35.227 33.9582 35.4016C33.1437 35.5956 32.3 35.6926 31.4272 35.6926C29.9145 35.6926 28.6733 35.5083 27.7035 35.1398C26.7338 34.7713 25.9774 34.1603 25.4344 33.307C24.8913 32.4343 24.5131 31.3191 24.2998 29.9615C24.1058 28.5845 24.0088 26.9262 24.0088 24.9868C24.0088 23.0085 24.1252 21.331 24.358 19.954C24.6101 18.5769 25.0271 17.4617 25.6089 16.6084C26.1907 15.755 26.9568 15.1441 27.9071 14.7756C28.8574 14.3877 30.0308 14.1937 31.4272 14.1937C32.6491 14.1937 33.6867 14.349 34.5401 14.6593C35.3934 14.9696 36.0819 15.4157 36.6056 15.9975C37.1486 16.5599 37.5365 17.2484 37.7692 18.063C38.0214 18.8581 38.1474 19.76 38.1474 20.7685V22.0776H32.9109Z" fill="#B0A59E"/>
<path fill-rule="evenodd" clip-rule="evenodd" d="M69.952 18.0176L74.6948 22.9394L79.4376 18.0176H87.6777L78.8086 26.455L87.6777 34.8924H79.4376L74.6948 29.958L69.952 34.8924H61.6994L70.5685 26.455L61.6994 18.0176H69.952ZM69.4948 26.455L59.8485 17.2783H70.2673L74.6948 21.8729L79.1222 17.2783H89.1691V17.2658H106.197C110.09 17.226 113.386 20.482 113.333 24.3887C113.332 25.7939 112.952 27.0892 112.191 28.2421C111.619 29.1147 110.894 29.8327 110.024 30.3787L113.655 35.0405V32.0172C113.655 29.6484 115.426 28.1383 117.462 27.1368C119.518 26.1258 122.113 25.4941 124.273 24.983L124.277 24.9823L124.301 24.9761C125.633 24.6485 126.767 24.3697 127.574 24.069C127.983 23.9165 128.251 23.7786 128.404 23.6613C128.423 23.6464 128.439 23.6332 128.453 23.6218C128.406 23.5789 128.311 23.5147 128.122 23.4408C127.683 23.2688 126.933 23.1392 125.797 23.1389C124.583 23.1514 123.551 23.2501 122.847 23.4972C122.5 23.619 122.29 23.7577 122.172 23.8879C122.072 23.9997 122.013 24.1324 122.018 24.3405L122.036 25.0975H113.919V24.3582C113.919 22.8406 114.217 21.5716 114.813 20.532C115.412 19.4876 116.284 18.725 117.348 18.1781C119.435 17.105 122.311 16.8389 125.517 16.8389C128.8 16.8389 131.526 17.2177 133.455 18.193C134.432 18.6873 135.226 19.345 135.771 20.2005C136.318 21.0581 136.586 22.0677 136.586 23.2157C136.586 25.34 135.304 26.6931 133.733 27.575C132.207 28.4313 130.287 28.9176 128.693 29.3066H136.31V35.6066H114.096L114.105 35.6192H105.207L102.024 31.5009H97.2425V35.6192H89.5149L89.5287 35.6317H79.1217L74.6948 31.026L70.2679 35.6317H59.8485L69.4948 26.455ZM89.1691 35.2894V17.6206L79.8822 26.455L89.1691 35.2894ZM102.389 30.7616L105.572 34.8798H112.591L108.905 30.1463C109.136 30.0394 109.356 29.9211 109.568 29.7917C110.374 29.2979 111.045 28.6418 111.572 27.8361C112.252 26.8065 112.591 25.6514 112.591 24.3833C112.643 20.8928 109.686 17.9674 106.201 18.005H89.9096V34.8798H96.5011V30.7616H102.389ZM124.813 30.0459C125.044 29.7637 125.462 29.5237 126.017 29.3066C126.671 29.0505 127.514 28.8262 128.461 28.6021C131.706 27.811 135.846 26.7312 135.846 23.2157C135.846 19.0974 132.021 17.5781 125.517 17.5781C119.401 17.5781 115.064 18.5745 114.687 23.6189C114.669 23.8563 114.66 24.1026 114.66 24.3582H121.278C121.277 24.3304 121.277 24.3029 121.278 24.2759C121.314 22.776 123.384 22.4242 125.794 22.3995C128.146 22.3995 129.228 22.9268 129.228 23.6426C129.228 24.526 127.14 25.0395 124.519 25.6841L124.448 25.7016C120.095 26.7312 114.396 28.1626 114.396 32.0172V34.8673H135.568V30.0459H124.813ZM128.495 23.6785C128.495 23.6785 128.49 23.6739 128.488 23.663C128.495 23.6728 128.495 23.6785 128.495 23.6785ZM105.247 24.3833C105.247 23.9881 104.936 23.6788 104.54 23.6788H97.2425V25.0754H104.54C104.753 25.0754 104.902 25.0108 105.035 24.8776C105.187 24.7259 105.247 24.5742 105.247 24.3833ZM105.987 24.3833C105.987 23.5797 105.346 22.9394 104.54 22.9394H96.5011V25.8146H104.54C104.943 25.8146 105.283 25.6765 105.56 25.4004C105.849 25.1115 105.987 24.7726 105.987 24.3833Z" fill="#B0A59E"/>
<path d="M62.3094 47.0665H65.4668V42.7434L68.63 47.0665H70.2086L73.3719 42.7434V47.0665H76.5292V38.9629H72.5826L69.4193 43.0147L66.2621 38.9629H62.3094V47.0665Z" fill="#B0A59E"/>
<path d="M83.1808 38.7637C80.1323 38.7697 77.6379 39.6499 77.6499 42.719V43.3098C77.6379 46.3728 80.1323 47.2592 83.1808 47.2652C86.2234 47.2592 88.7181 46.3728 88.7064 43.3098V42.719C88.7064 39.656 86.2298 38.7637 83.1808 38.7637ZM85.5489 43.1109C85.567 44.4374 84.4702 44.6786 83.1808 44.6967C81.8857 44.6786 80.789 44.4374 80.8071 43.1109V42.912C80.789 41.5914 81.8857 41.3503 83.1808 41.3322C84.4702 41.3503 85.567 41.5914 85.5489 42.912V43.1109Z" fill="#B0A59E"/>
<path d="M97.5511 43.0268C97.5511 43.8407 97.0873 44.51 96.2681 44.51H92.8096V41.5435H96.2681C97.0873 41.5435 97.5511 42.2067 97.5511 43.0268ZM89.6522 38.975V47.0785H96.8585C99.0819 47.1087 100.733 45.2275 100.715 43.0268C100.733 40.8139 99.0819 38.9448 96.8585 38.975H89.6522Z" fill="#B0A59E"/>
<path d="M109.505 43.1172C109.523 44.4497 108.428 44.6788 107.137 44.6969C105.843 44.6788 104.752 44.4497 104.764 43.1172V38.9629H101.606V43.3162C101.595 46.3792 104.101 47.2595 107.137 47.2654C110.174 47.2595 112.681 46.3792 112.669 43.3162V38.9629H109.505V43.1172Z" fill="#B0A59E"/>
<path d="M114.09 38.9629V47.0665H123.569V44.498H117.248V38.9629H114.09Z" fill="#B0A59E"/>
<path d="M124.647 47.0781H134.126V44.998H127.804V43.9609H134.126V42.0858H127.804V41.0487H134.126V38.9746H124.647V47.0781Z" fill="#B0A59E"/>
<path d="M64.1273 8.09087V6.38311H68.807C69.0337 6.38311 69.2311 6.46513 69.3919 6.63662C69.5601 6.80077 69.6405 7.00204 69.6405 7.24066C69.6405 7.47194 69.5601 7.67321 69.3919 7.84481C69.2311 8.00885 69.0337 8.09087 68.807 8.09087H64.1273ZM60.296 3.45236V13.4751H64.1273V11.0291H69.7649C71.7903 11.059 73.5086 9.30641 73.4794 7.24066C73.5086 5.16758 71.7903 3.42992 69.7649 3.45236H60.296Z" fill="#B0A59E"/>
<path d="M81.1056 3.19141C77.4059 3.19885 74.3787 4.28768 74.3933 8.08353V8.81439C74.3787 12.6028 77.4059 13.699 81.1056 13.7064C84.7979 13.699 87.8255 12.6028 87.8106 8.81439V8.08353C87.8106 4.29513 84.8053 3.19141 81.1056 3.19141ZM83.9787 8.56822C84.0011 10.2089 82.6702 10.5072 81.1056 10.5296C79.5336 10.5072 78.2029 10.2089 78.2248 8.56822V8.32215C78.2029 6.68896 79.5336 6.39066 81.1056 6.36832C82.6702 6.39066 84.0011 6.68896 83.9787 8.32215V8.56822Z" fill="#B0A59E"/>
<path d="M102.749 9.79891L100.474 3.45264H96.1607L93.8798 9.79891L91.6053 3.45264H87.2915L91.6053 13.4754H96.1607L98.3181 8.46402L100.474 13.4754H105.03L109.345 3.45264H105.03L102.749 9.79891Z" fill="#B0A59E"/>
<path d="M109.637 13.4754H121.138V10.9026H113.468V9.61987H121.138V7.30062H113.468V6.01796H121.138V3.45264H109.637V13.4754Z" fill="#B0A59E"/>
<path d="M123.179 3.44504V13.4679H127.01V11.0218H130.432L132.282 13.4679H136.362L134.219 10.6564C134.863 10.3507 135.382 9.88833 135.769 9.28429C136.165 8.6728 136.362 7.98674 136.362 7.23344C136.391 5.16025 134.672 3.4227 132.648 3.44504H123.179ZM131.682 6.37589C132.15 6.37589 132.523 6.75621 132.523 7.23344C132.523 7.46461 132.443 7.66599 132.274 7.83748C132.114 8.00163 131.916 8.08365 131.682 8.08365H127.01V6.37589H131.682Z" fill="#B0A59E"/>
</svg>
