<svg width="80" height="50" viewBox="0 0 80 50" fill="none" xmlns="http://www.w3.org/2000/svg">
<g clip-path="url(#clip0_32_11135)">
<path d="M74.7601 6.14619C74.7601 6.20449 74.7601 6.27736 74.7453 6.32109C74.6707 6.88951 74.6707 7.45793 74.7154 8.04093C74.7452 8.18668 74.775 8.33243 74.8943 8.44903C75.0881 8.66764 75.3862 8.62393 75.5055 8.36158C75.5651 8.23041 75.5651 8.09922 75.5352 7.96805C75.3862 7.4142 75.3564 6.83121 75.3415 6.26278C75.3415 6.23363 75.3415 6.18991 75.3415 6.14619C75.5055 6.13161 75.6546 6.11703 75.7887 6.11703C75.8931 6.10246 75.9825 6.08788 76.0571 6.04416C76.2806 5.92756 76.2806 5.67979 76.0421 5.56319C75.9526 5.51946 75.8334 5.50488 75.7291 5.50488C75.3564 5.51946 74.9838 5.51946 74.611 5.51946C74.477 5.51946 74.3427 5.53404 74.2085 5.54861C74.134 5.56319 74.0446 5.56319 73.985 5.60692C73.8806 5.65063 73.821 5.72351 73.821 5.82553C73.8359 5.92756 73.8806 5.98586 73.985 6.02959C74.0446 6.07331 74.1191 6.08788 74.1937 6.08788C74.3725 6.10246 74.5664 6.13161 74.7601 6.14619ZM78.8595 6.81663C78.8595 6.83121 78.8743 6.84578 78.8743 6.84578C78.934 7.2393 78.9937 7.61826 79.0383 7.9972C79.0533 8.12837 79.0682 8.24497 79.1576 8.347C79.3514 8.59477 79.6496 8.56562 79.7837 8.30328C79.8433 8.1721 79.8582 8.04093 79.8284 7.89518C79.739 7.45793 79.6942 7.02068 79.6048 6.59801C79.5451 6.33566 79.4707 6.08788 79.3962 5.85469C79.3514 5.70894 79.2471 5.60691 79.0682 5.59234C78.8893 5.56319 78.7551 5.65063 78.6806 5.78181C78.5912 5.89841 78.5166 6.01501 78.457 6.14619C78.3526 6.37938 78.2632 6.61259 78.144 6.83121C78.129 6.88951 78.1141 6.93323 78.0843 6.97695C78.0695 6.9478 78.0546 6.93323 78.0546 6.93323C77.8607 6.56886 77.6818 6.20448 77.4881 5.85469C77.4582 5.82553 77.4433 5.79638 77.4284 5.76723C77.339 5.63606 77.2347 5.56319 77.0707 5.56319C76.9216 5.57776 76.8023 5.66521 76.7279 5.79638C76.698 5.85469 76.698 5.89841 76.6831 5.95671C76.6234 6.42311 76.5489 6.88951 76.4893 7.35591C76.4595 7.61826 76.4446 7.8806 76.4446 8.14295C76.4297 8.20125 76.4446 8.27412 76.4743 8.33243C76.5042 8.44902 76.5937 8.52191 76.7129 8.53647C76.862 8.55105 76.9663 8.50733 77.011 8.39072C77.0557 8.30328 77.0707 8.23041 77.0856 8.15753C77.1452 7.89518 77.1899 7.64741 77.2347 7.39963C77.2645 7.25388 77.2793 7.13728 77.3241 6.97695C77.3539 7.03526 77.3837 7.07898 77.4135 7.1227C77.5476 7.29761 77.6818 7.47251 77.8458 7.61826C78.0098 7.73485 78.144 7.72028 78.2781 7.5891C78.308 7.55995 78.3229 7.54538 78.3526 7.51622C78.4868 7.31218 78.6508 7.10813 78.7849 6.90408C78.8148 6.87493 78.8297 6.84578 78.8595 6.81663Z" fill="#B0A59E"/>
<path d="M44.5123 6.43253C44.4087 6.70951 44.3889 6.90907 44.4368 7.07493C44.4896 7.30048 44.6268 7.37432 44.8129 7.31696C46.5638 6.89363 50.4032 8.09522 51.8247 8.43012C52.1599 8.50043 52.4327 8.07731 52.2039 7.69795C51.8701 7.33056 48.0323 5.75764 46.568 5.67188C45.994 5.64016 44.9679 5.49625 44.5123 6.43253Z" fill="#B0A59E"/>
<path d="M59.5175 1.3408C59.7041 1.44611 59.8084 1.54656 59.8599 1.6588C59.9366 1.80603 59.8961 1.90789 59.7673 1.95987C58.6099 2.51216 57.0698 4.8899 56.4481 5.70996C56.2974 5.89861 55.9498 5.78898 55.8973 5.47875C55.9081 5.12798 57.2733 2.54761 58.0352 1.8448C58.3347 1.5704 58.8293 1.032 59.5175 1.3408Z" fill="#B0A59E"/>
<path d="M50.3005 0.170223C50.5247 0.00502145 50.7576 -0.05287 50.8766 0.05449C52.6229 1.51466 53.5489 3.82697 54.1223 5.94383C54.1439 5.99315 54.1452 6.06392 54.128 6.13775C54.1208 6.20085 54.0737 6.26751 53.9988 6.31909C53.9188 6.37603 53.8499 6.39337 53.8175 6.34431C53.0522 5.3265 48.6809 1.36639 50.3005 0.170223Z" fill="#B0A59E"/>
<path d="M13.3217 25.4859C13.7402 25.1812 14.1952 24.9276 14.6767 24.7307C15.1805 24.5899 15.7174 24.6132 16.2064 24.7973C16.6952 24.9814 17.1097 25.3161 17.3867 25.7509C17.6346 26.1845 17.7315 26.6852 17.6631 27.1774C17.5947 27.6696 17.3646 28.1268 17.0073 28.4801C16.7304 28.7664 16.4159 29.0159 16.0724 29.222C14.5413 30.1891 12.9965 31.1032 11.4518 32.0704C11.1357 32.3124 10.8004 32.5296 10.4491 32.7196C9.91468 32.9802 9.30396 33.0499 8.72249 32.9169C8.14104 32.7839 7.62542 32.4563 7.26481 31.991C6.99523 31.6614 6.76772 31.3011 6.5873 30.9178C5.12389 27.9104 3.60628 24.9162 2.19707 21.8557C1.54666 20.531 1.01821 19.0073 0.503304 17.5368C0.280533 17.1095 0.237031 16.6141 0.38206 16.156C0.52709 15.6978 0.84921 15.313 1.2799 15.0835C1.71059 14.8539 2.21586 14.7978 2.68827 14.9269C3.16068 15.056 3.56295 15.3602 3.80952 15.7747C4.56742 16.7595 5.23832 17.8055 5.81494 18.9014C7.27835 21.5511 8.67402 24.2007 10.0832 26.771C10.1653 26.913 10.2558 27.0501 10.3542 27.1816C11.4149 26.7456 12.4125 26.1755 13.3217 25.4859Z" fill="#B0A59E"/>
<path d="M28.4525 24.5614C25.1057 28.3901 19.4959 27.4229 16.6775 22.4945C14.6721 18.9969 14.3198 13.2206 18.683 9.57723C19.6147 8.81447 20.7288 8.29486 21.9214 8.06689C23.3837 7.86192 24.8748 8.11415 26.1816 8.78753C27.4884 9.46092 28.5441 10.521 29.1979 11.8162C31.5827 16.0558 31.2439 21.4611 28.4525 24.5614ZM27.0975 15.6318C26.742 14.59 26.0287 13.7006 25.0786 13.1145C24.5409 12.7399 23.8876 12.5577 23.2288 12.5987C22.5698 12.6398 21.9455 12.9015 21.4607 13.3398C19.5231 15.0224 19.1165 19.0102 20.5257 21.3817C20.7054 21.7684 20.9691 22.112 21.2988 22.3886C21.6284 22.6652 22.0159 22.8681 22.4341 22.9828C22.8523 23.0977 23.2911 23.1218 23.7198 23.0535C24.1486 22.9851 24.5567 22.826 24.9161 22.5873C25.9664 21.791 26.737 20.6946 27.1206 19.4506C27.5044 18.2064 27.4821 16.8762 27.057 15.6451L27.0975 15.6318Z" fill="#B0A59E"/>
<path d="M42.1109 17.3013C41.7683 17.3734 41.4143 17.3777 41.0699 17.3139C40.7256 17.2502 40.3976 17.1198 40.1056 16.9304C39.85 16.7874 39.63 16.591 39.4614 16.3549C39.2928 16.1189 39.1799 15.8494 39.1307 15.5655C39.0814 15.2818 39.0972 14.9909 39.1766 14.7137C39.2561 14.4365 39.3976 14.1801 39.5907 13.9627C39.927 13.5259 40.4045 13.2131 40.9457 13.0751C42.3585 12.6741 43.813 12.4297 45.2817 12.3464C45.6044 12.3097 45.9314 12.3364 46.2433 12.4249C46.5553 12.5136 46.846 12.6621 47.0985 12.8621C47.3509 13.062 47.56 13.3093 47.7134 13.5893C47.8667 13.8693 47.9614 14.1764 47.9917 14.4927C48.4151 16.0461 48.4615 17.6748 48.1272 19.2489C46.9077 24.3363 42.7072 26.0851 37.9917 24.4555C36.6681 24.0198 35.5075 23.208 34.6584 22.1238C33.5259 20.8181 32.7229 19.2707 32.3142 17.6061C31.9831 16.1237 32.0193 14.5855 32.4201 13.1197C32.8208 11.6539 33.5743 10.3031 34.6177 9.18C35.6079 7.95935 36.8932 6.9987 38.3576 6.38456C39.2829 5.88586 40.3658 5.74407 41.3928 5.9871C41.6258 6.05015 41.8373 6.17299 42.0053 6.34289C42.1734 6.5128 42.2919 6.72356 42.3486 6.95334C42.4053 7.18311 42.3981 7.42353 42.3277 7.64967C42.2573 7.8758 42.1264 8.0794 41.9484 8.23935C41.61 8.53884 41.2424 8.80509 40.8508 9.03426C39.6461 9.78434 38.5978 10.7509 37.7614 11.8827C37.2131 12.6151 36.8354 13.4561 36.6552 14.3464C36.4749 15.2368 36.4964 16.1549 36.7181 17.0364C37.0253 18.2382 37.7073 19.317 38.6692 20.1232C41.6502 22.773 45.5256 20.216 44.8481 16.5991C43.859 16.8377 42.9917 17.0894 42.1109 17.3013Z" fill="#B0A59E"/>
<path d="M60.3225 24.7736C55.9188 27.4233 50.9052 24.7736 49.8076 19.2093C49.0082 15.2347 50.5258 9.67031 55.8375 7.55055C56.9676 7.10924 58.1934 6.9543 59.4012 7.10009C60.8522 7.35981 62.1833 8.05825 63.2067 9.09697C64.2301 10.1357 64.8945 11.4622 65.1057 12.8897C66 17.6194 63.9675 22.6671 60.3225 24.7736ZM61.8538 15.8573C61.8524 14.7568 61.4542 13.6918 60.7291 12.8499C60.3415 12.3293 59.7812 11.9562 59.1437 11.7943C58.506 11.6324 57.8309 11.6918 57.2331 11.9623C54.8483 12.9691 53.1681 16.6257 53.7779 19.3153C53.8245 19.7373 53.9647 20.1444 54.1889 20.5079C54.4131 20.8714 54.7158 21.1827 55.0759 21.4199C55.4359 21.6571 55.8447 21.8146 56.2734 21.8813C56.7023 21.9479 57.1408 21.9222 57.5583 21.806C58.8189 21.3754 59.9104 20.5707 60.6804 19.5043C61.4505 18.4378 61.8607 17.1628 61.8538 15.8573Z" fill="#B0A59E"/>
<path d="M69.5591 25.8866C69.4926 26.3715 69.232 26.8107 68.8342 27.1077C68.4365 27.4045 67.9345 27.5348 67.4386 27.4698C66.9426 27.4048 66.4934 27.1498 66.1898 26.761C65.8861 26.3722 65.7529 25.8813 65.8193 25.3964C65.8858 24.9115 66.1466 24.4723 66.5442 24.1754C66.942 23.8785 67.444 23.7482 67.9399 23.8132C68.4358 23.8782 68.885 24.1331 69.1888 24.522C69.4924 24.9109 69.6257 25.4018 69.5591 25.8866ZM68.3803 8.01434C68.638 7.62951 69.0161 7.33645 69.4581 7.17887C69.9 7.02129 70.3823 7.00763 70.8329 7.13994C71.2909 7.252 71.6956 7.51451 71.9794 7.88352C72.263 8.25254 72.4083 8.70565 72.3912 9.16696C72.3314 9.90693 72.2182 10.6418 72.0524 11.3662C71.6053 13.8172 71.1716 16.2681 70.6974 18.6927C70.4806 19.6598 70.1961 20.5872 69.8843 21.5676C69.7759 21.874 69.5948 22.151 69.3559 22.3757C69.2074 22.5448 69.0178 22.6745 68.8044 22.7528C68.5909 22.8312 68.3608 22.8556 68.1353 22.8239C67.9097 22.7922 67.6958 22.7054 67.5137 22.5715C67.3315 22.4376 67.1868 22.2608 67.0931 22.0578C66.932 21.6935 66.8445 21.302 66.8356 20.9052C66.8356 19.2623 66.8356 17.6063 66.944 15.9502C67.1282 13.5868 67.4905 11.2398 68.028 8.92849C68.0913 8.61883 68.2105 8.3227 68.3803 8.05409V8.01434Z" fill="#B0A59E"/>
<path fill-rule="evenodd" clip-rule="evenodd" d="M7.59685 36.5325C7.43686 36.8817 7.39299 37.2711 7.47117 37.6457C7.52318 38.1396 7.63742 38.6254 7.81128 39.092C8.02835 39.6633 8.27125 40.2283 8.57075 40.9247C8.63962 41.0849 8.7116 41.2522 8.78692 41.4282C9.1908 42.3716 9.69758 43.5773 10.3735 45.3222C10.5649 45.8179 10.7348 46.3177 10.9059 46.8208C10.975 47.0241 11.0443 47.2281 11.1153 47.4325C11.3698 48.1594 11.8077 48.8123 12.3882 49.3298C12.6347 49.6142 12.9616 49.8215 13.3282 49.9252C13.702 50.0308 14.0995 50.0241 14.4692 49.906C14.839 49.7877 15.1638 49.5633 15.4014 49.2621C15.6343 48.9667 15.7729 48.6108 15.7998 48.239C15.9509 47.5147 15.8993 46.7637 15.6502 46.0654C15.2549 44.906 14.8046 43.7448 14.2852 42.6091L14.2829 42.6041C13.4285 40.8273 12.5601 39.0628 11.6506 37.2975L11.6438 37.2852C11.3776 36.8253 11.0316 36.4141 10.6213 36.0703C10.355 35.7633 9.98767 35.5563 9.58199 35.4849C9.16766 35.4121 8.74034 35.4855 8.37631 35.6922C8.03195 35.8845 7.75897 36.1787 7.59685 36.5325Z" fill="#B0A59E"/>
<path fill-rule="evenodd" clip-rule="evenodd" d="M20.6452 32.1575C19.3057 31.8182 17.9067 31.7688 16.5458 32.0127C15.4917 32.1142 14.455 32.3519 13.7351 32.8228C13.369 33.0625 13.0729 33.3702 12.9083 33.7613C12.7427 34.1546 12.7216 34.6044 12.8573 35.1055C13.105 36.0235 13.4267 36.916 13.7473 37.8056L13.7992 37.9497L13.8004 37.9529C14.7657 40.5375 15.7401 43.1132 16.7234 45.6802C16.8381 46.0847 17.0002 46.475 17.2066 46.843L17.2104 46.8498C17.4831 47.3071 17.8327 47.7161 18.2447 48.0596C18.4507 48.2485 18.7054 48.3792 18.9817 48.4376C19.2607 48.4964 19.5508 48.4794 19.8204 48.388C20.0902 48.2968 20.3291 48.1348 20.5111 47.9198C20.6902 47.7084 20.8075 47.4536 20.8506 47.1825C21.0283 46.4459 20.9714 45.6737 20.6873 44.9696C20.5986 44.7327 20.5291 44.4905 20.4558 44.2356C20.4314 44.1506 20.4066 44.0642 20.3804 43.9761C22.6312 43.1159 25.0261 41.9592 25.8683 39.2682C26.1981 38.3384 26.2256 37.3314 25.9469 36.3855C25.6681 35.4386 25.0959 34.5993 24.3093 33.9831C23.2387 33.1206 21.9882 32.4975 20.6452 32.1575ZM16.9321 35.458C16.9765 35.4455 17.0211 35.4339 17.0659 35.4231C18.5312 35.1979 20.0304 35.498 21.2875 36.268C21.8415 36.6447 22.0684 37.0632 22.1074 37.466C22.1476 37.8806 21.9934 38.33 21.6836 38.7619C21.0983 39.5778 20.0301 40.2309 19.0652 40.3526C18.3618 38.7687 17.6475 37.1207 16.9321 35.458Z" fill="#B0A59E"/>
<path d="M29.5758 29.2583C31.171 28.538 33.147 28.4136 34.6933 28.92C35.0827 29.0309 35.4206 29.2708 35.6491 29.5987C35.8761 29.9245 35.9809 30.3171 35.9459 30.7096C35.9436 30.9644 35.8797 31.215 35.7593 31.4412C35.6368 31.6714 35.4594 31.8694 35.2422 32.0184C35.0249 32.1674 34.7741 32.2632 34.511 32.2974C34.2478 32.3317 33.9802 32.3036 33.7306 32.2153L33.7116 32.2086L33.6937 32.1994C33.566 32.134 33.4303 32.0848 33.29 32.0528L33.2811 32.0508C32.1934 31.7683 31.1674 32.2364 30.7926 32.8115C30.6139 33.0857 30.5917 33.3625 30.7406 33.6144C30.9 33.884 31.291 34.1866 32.0823 34.4023C32.2999 34.4607 32.5229 34.5171 32.7492 34.5744C33.3749 34.7328 34.0251 34.8973 34.6539 35.1254L34.6562 35.1263C37.5569 36.2054 38.637 38.4403 38.2673 40.5423C37.9015 42.6211 36.1259 44.5129 33.4558 44.9591C32.4842 45.1697 31.4731 45.1287 30.5225 44.8402C29.5695 44.5507 28.7106 44.0226 28.0309 43.3081L28.0132 43.2895C27.7986 43.0203 27.6543 42.704 27.5903 42.3684C27.5315 42.0656 27.5625 41.7526 27.6795 41.4664C27.7959 41.1819 27.9927 40.9356 28.2467 40.7562C28.515 40.5528 28.8384 40.4307 29.1769 40.4053C29.5143 40.3799 29.8519 40.4516 30.1482 40.6114C30.4441 40.7512 30.7193 40.9295 30.9664 41.1415L30.971 41.1454C31.4081 41.5362 31.9368 41.638 32.4439 41.5437C32.9583 41.448 33.442 41.1504 33.7532 40.7555C34.0623 40.3631 34.1864 39.897 34.0391 39.4445C33.8909 38.9887 33.4453 38.478 32.4664 38.0511C32.2104 37.9448 31.9451 37.8591 31.6691 37.7757C31.5947 37.7532 31.519 37.7308 31.4424 37.7081C31.2383 37.6475 31.0283 37.5851 30.8224 37.5164C30.6806 37.4691 30.5399 37.4244 30.4006 37.3799C30.0198 37.2587 29.6485 37.1405 29.2912 36.982C28.5136 36.7231 27.8418 36.2261 27.3758 35.5644C26.9078 34.9 26.6724 34.1056 26.7044 33.2997C26.7069 31.3357 27.972 29.9826 29.5758 29.2583Z" fill="#B0A59E"/>
<path d="M49.8 29.049C49.4907 28.9013 49.1487 28.8312 48.8048 28.845C48.4608 28.8588 48.1258 28.9561 47.83 29.1283C47.5361 29.2992 47.2899 29.5385 47.1136 29.825C46.9519 30.0662 46.8399 30.336 46.7841 30.6193C46.7283 30.9023 46.7297 31.1933 46.788 31.4756C46.8456 31.8386 46.9095 32.1915 46.9725 32.5396C47.077 33.1156 47.1786 33.6787 47.2456 34.2528L47.2481 34.2673C47.4007 35.1677 47.4806 36.0782 47.4878 36.9907L47.4884 37.0037C47.5406 37.9892 47.1972 38.9554 46.5319 39.6975L46.5213 39.7106C46.3048 39.9819 46.0154 40.1889 45.6853 40.3086C45.3553 40.4282 44.9978 40.4557 44.6527 40.388C44.3075 40.3203 43.9886 40.1601 43.7313 39.9252C43.474 39.6903 43.2884 39.3892 43.1958 39.0572C42.9981 38.3576 42.8837 37.6379 42.8546 36.9127L43.1923 31.6555C43.1973 31.5869 43.203 31.5164 43.2088 31.4453C43.2216 31.2856 43.2348 31.123 43.2403 30.9713C43.2482 30.7481 43.2414 30.5186 43.1882 30.3013C43.1338 30.0793 43.0303 29.868 42.8466 29.6881C42.6648 29.5101 42.4194 29.3787 42.1105 29.2893C41.552 29.1312 41.0797 29.1362 40.6862 29.2995C40.2924 29.4628 40.0227 29.766 39.8317 30.1162C39.6423 30.4635 39.5206 30.8746 39.4286 31.2864C39.3603 31.592 39.3054 31.9128 39.2532 32.2181C39.2352 32.3234 39.2175 32.4267 39.1997 32.527L39.1992 32.53C38.9202 34.2045 38.8371 35.9047 38.9516 37.5977C38.973 38.5126 39.1681 39.4156 39.5272 40.2607C39.9323 41.3512 40.6661 42.296 41.6316 42.9704C42.5992 43.6462 43.7539 44.0186 44.9428 44.0382C46.1316 44.0579 47.2986 43.7239 48.289 43.0806C49.2779 42.4382 50.0442 41.5176 50.4867 40.4404C51.1057 39.0683 51.3964 37.576 51.3364 36.0773C51.3 34.9833 51.2391 33.8808 51.1786 32.7838C51.1488 32.2458 51.1191 31.7088 51.0925 31.1752C51.0791 30.6401 50.8987 30.1218 50.5753 29.6898C50.3752 29.4168 50.1088 29.1965 49.8 29.049Z" fill="#B0A59E"/>
<path d="M60.748 37.2923C60.7166 37.3312 60.6836 37.3716 60.649 37.4135C60.3974 35.9944 60.1642 34.5758 59.9307 33.155C59.847 32.6452 59.7628 32.1333 59.6781 31.6228L59.6686 31.5659L59.6376 31.5167C59.5794 31.4241 59.5736 31.3333 59.5736 31.1396V31.1173L59.57 31.0951C59.5068 30.6952 59.3219 30.3231 59.0392 30.0274C58.7574 29.7325 58.3914 29.5273 57.9888 29.4382C57.5869 29.3412 57.1645 29.3626 56.7748 29.4996C56.3862 29.6364 56.0474 29.882 55.8008 30.2059C55.5958 30.4544 55.4278 30.7301 55.3018 31.0246C55.0161 31.6592 54.7278 32.2953 54.4387 32.9332L54.4337 32.9442C53.712 34.5366 52.9854 36.1396 52.2799 37.7553L52.2778 37.7606C51.8447 38.8082 51.4872 39.912 51.1309 41.0125C51.0598 41.2321 50.9887 41.4517 50.917 41.6707C50.7883 42.0179 50.7321 42.3868 50.7514 42.7556C50.728 43.0857 50.8088 43.415 50.9831 43.699C51.1608 43.9887 51.4271 44.2167 51.7442 44.3509C52.0804 44.495 52.4562 44.5256 52.8122 44.4378C53.1674 44.3502 53.4829 44.1498 53.7089 43.8679C53.9975 43.5208 54.2458 43.1421 54.4483 42.741C55.0459 41.5458 55.6171 40.336 56.1856 39.1315C56.4056 38.6656 56.6194 38.2483 56.8625 37.7939C56.8792 37.8499 56.8963 37.9045 56.9139 37.9593C57.1688 39.0565 57.599 40.1074 58.1887 41.0735C58.3003 41.2782 58.4557 41.457 58.6443 41.5978C58.8353 41.7403 59.0556 41.8403 59.29 41.8911C59.5245 41.9419 59.7674 41.9421 60.002 41.8918C60.2362 41.8416 60.4572 41.7415 60.6482 41.5996L61.0263 41.3229L63.9607 38.9062L63.7872 39.9875C63.549 41.4737 63.3126 42.9476 63.0615 44.4218C62.8972 45.0752 62.8974 45.7577 63.0622 46.4109C63.1336 46.7785 63.3154 47.1169 63.5845 47.3831C63.8558 47.6514 64.2033 47.8336 64.582 47.9064C64.9606 47.979 65.3529 47.9387 65.7078 47.7907C66.0575 47.6449 66.355 47.401 66.563 47.0902C67.0469 46.5033 67.348 45.7927 67.4307 45.0431C67.5553 43.9844 67.6959 42.9114 67.8367 41.8386C67.9989 40.6021 68.1611 39.366 68.298 38.1536L68.2984 38.1499C68.4303 36.8227 68.494 35.4901 68.4896 34.1567C68.5184 33.7353 68.4112 33.3156 68.1825 32.9568C67.9531 32.5968 67.6133 32.3169 67.2117 32.1568C66.794 31.9711 66.3264 31.9215 65.8776 32.0153C65.4318 32.1085 65.0283 32.3383 64.7256 32.6711C64.1843 33.1606 63.6766 33.6843 63.2056 34.239L63.2024 34.2427C62.6882 34.8692 62.1775 35.5079 61.6701 36.1426C61.3616 36.5284 61.054 36.9133 60.748 37.2923Z" fill="#B0A59E"/>
</g>
<defs>
<clipPath id="clip0_32_11135">
<rect width="79.5455" height="50" fill="white" transform="translate(0.297852)"/>
</clipPath>
</defs>
</svg>
