<svg width="132" height="50" viewBox="0 0 132 50" fill="none" xmlns="http://www.w3.org/2000/svg">
<path d="M60.7633 44.0477H64.1813V31.1549H60.7633V44.0477ZM60.7633 29.1442H64.1813V26.0781H60.7633V29.1442Z" fill="#B0A59E"/>
<path d="M66.3837 48.2697H69.8017V42.5899H69.852C70.5808 43.6956 71.762 44.4245 73.5715 44.4245C76.889 44.4245 79.1509 41.7856 79.1509 37.6136C79.1509 33.5924 76.9644 30.8027 73.5464 30.8027C71.7872 30.8027 70.5808 31.6321 69.7514 32.763H69.676V31.1546H66.3837V48.2697ZM72.8428 41.5845C70.807 41.5845 69.7263 40.0515 69.7263 37.7141C69.7263 35.402 70.5808 33.5672 72.717 33.5672C74.8282 33.5672 75.6827 35.2762 75.6827 37.7141C75.6827 40.152 74.5769 41.5845 72.8428 41.5845Z" fill="#B0A59E"/>
<path d="M85.9691 44.4245C89.186 44.4245 91.3976 42.8662 91.3976 40.2776C91.3976 37.2617 89.0101 36.6586 86.8488 36.2062C85.014 35.8292 83.305 35.7286 83.305 34.6229C83.305 33.693 84.1846 33.1902 85.5168 33.1902C86.9744 33.1902 87.854 33.693 88.0048 35.0752H91.0961C90.8448 32.4866 88.9599 30.8027 85.567 30.8027C82.6265 30.8027 80.3143 32.1347 80.3143 34.9244C80.3143 37.7392 82.5763 38.3676 84.8884 38.82C86.6476 39.1717 88.2813 39.2975 88.2813 40.529C88.2813 41.4337 87.4268 42.0117 85.9188 42.0117C84.3858 42.0117 83.3301 41.3584 83.104 39.8755H79.9373C80.1384 42.615 82.2244 44.4245 85.9691 44.4245Z" fill="#B0A59E"/>
<path d="M104.375 44.0477V31.1548H100.957V38.5939C100.957 40.3029 99.9766 41.5093 98.3681 41.5093C96.9105 41.5093 96.2319 40.6799 96.2319 39.1719V31.1548H92.839V39.75C92.839 42.5648 94.4475 44.3995 97.3126 44.3995C99.1221 44.3995 100.127 43.7209 101.007 42.5397H101.082V44.0477H104.375Z" fill="#B0A59E"/>
<path d="M106.586 44.0475H110.004V36.558C110.004 34.849 110.934 33.7432 112.316 33.7432C113.573 33.7432 114.301 34.4971 114.301 35.9549V44.0475H117.719V36.558C117.719 34.849 118.599 33.7432 120.032 33.7432C121.288 33.7432 122.017 34.4971 122.017 35.9549V44.0475H125.435V35.3769C125.435 32.562 123.902 30.8027 121.188 30.8027C119.554 30.8027 118.197 31.6572 117.317 33.0646H117.267C116.639 31.7075 115.332 30.8027 113.698 30.8027C111.914 30.8027 110.657 31.7075 109.953 32.8887H109.878V31.1546H106.586V44.0475Z" fill="#B0A59E"/>
<path d="M60.8135 21.9652H64.2315V3.99561H60.8135V21.9652Z" fill="#B0A59E"/>
<path d="M72.589 22.342C76.5851 22.342 79.3245 19.3763 79.3245 15.5311C79.3245 11.6858 76.5851 8.72021 72.589 8.72021C68.593 8.72021 65.8535 11.6858 65.8535 15.5311C65.8535 19.3763 68.593 22.342 72.589 22.342ZM72.589 19.7282C70.4779 19.7282 69.3219 18.0443 69.3219 15.5311C69.3219 13.0178 70.4779 11.3089 72.589 11.3089C74.675 11.3089 75.8563 13.0178 75.8563 15.5311C75.8563 18.0443 74.675 19.7282 72.589 19.7282Z" fill="#B0A59E"/>
<path d="M86.5933 26.3632C88.5034 26.3632 90.1622 25.9108 91.2428 24.9055C92.1978 24.0258 92.7759 22.7943 92.7759 20.9848V9.07206H89.4835V10.4292H89.4333C88.6542 9.34851 87.4729 8.72021 85.8644 8.72021C82.5973 8.72021 80.285 11.1832 80.285 15.0285C80.285 18.924 83.0999 21.1858 85.965 21.1858C87.5987 21.1858 88.5788 20.5325 89.3328 19.678H89.4082V21.0853C89.4082 22.8446 88.4783 23.7745 86.543 23.7745C84.9597 23.7745 84.2309 23.1462 83.9544 22.342H80.5615C80.9134 24.8552 83.0748 26.3632 86.5933 26.3632ZM86.543 18.4465C84.7838 18.4465 83.6277 17.1647 83.6277 14.9782C83.6277 12.8168 84.7838 11.4596 86.5179 11.4596C88.5788 11.4596 89.584 13.0681 89.584 14.9531C89.584 16.8631 88.7044 18.4465 86.543 18.4465Z" fill="#B0A59E"/>
<path d="M101.084 22.342C105.08 22.342 107.819 19.3763 107.819 15.5311C107.819 11.6858 105.08 8.72021 101.084 8.72021C97.0879 8.72021 94.3484 11.6858 94.3484 15.5311C94.3484 19.3763 97.0879 22.342 101.084 22.342ZM101.084 19.7282C98.9728 19.7282 97.8166 18.0443 97.8166 15.5311C97.8166 13.0178 98.9728 11.3089 101.084 11.3089C103.17 11.3089 104.351 13.0178 104.351 15.5311C104.351 18.0443 103.17 19.7282 101.084 19.7282Z" fill="#B0A59E"/>
<path d="M110.816 17.0391H125.593V14.0986H110.816V17.0391Z" fill="#B0A59E"/>
<path d="M126.677 28.9647C126.677 28.3864 127.146 27.9175 127.725 27.9175H129.818C130.397 27.9175 130.866 28.3864 130.866 28.9647C130.866 29.543 130.397 30.0119 129.818 30.0119H127.725C127.146 30.0119 126.677 29.543 126.677 28.9647Z" fill="#B0A59E"/>
<path fill-rule="evenodd" clip-rule="evenodd" d="M26.2452 0C40.0524 0 51.2452 11.1929 51.2452 25C51.2452 38.8071 40.0524 50 26.2452 50C12.4381 50 1.24524 38.8071 1.24524 25C1.24524 11.1929 12.4381 0 26.2452 0ZM25.3416 1.87074C22.4896 2.27211 19.7739 4.56385 17.6657 8.39675C17.0542 9.50854 16.5025 10.7368 16.0216 12.0631C18.8881 11.3427 22.037 10.918 25.3416 10.8523V1.87074ZM13.9087 12.6635C14.5066 10.787 15.2381 9.0605 16.0822 7.52581C17.1272 5.62574 18.3675 3.98494 19.7649 2.72471C12.1662 4.93154 6.17677 10.921 3.96996 18.5196C5.23017 17.1222 6.87098 15.882 8.77106 14.837C10.3057 13.9929 12.0322 13.2614 13.9087 12.6635ZM13.3082 14.7764C12.5879 17.6429 12.1633 20.7917 12.0976 24.0964H3.11597C3.51736 21.2442 5.80909 18.5285 9.64199 16.4205C10.7538 15.809 11.9821 15.2572 13.3082 14.7764ZM13.9052 24.0964C13.9799 20.49 14.499 17.1042 15.358 14.1128C18.3495 13.2537 21.7354 12.7345 25.3416 12.6599V16.5635C23.9962 20.0077 21.2522 22.7515 17.8079 24.0964H13.9052ZM12.0976 25.9036H3.11597C3.51736 28.7558 5.80909 31.4714 9.64199 33.5795C10.7538 34.191 11.9821 34.7427 13.3082 35.2236C12.5879 32.3571 12.1633 29.2083 12.0976 25.9036ZM15.358 35.8873C14.499 32.8958 13.9799 29.51 13.9052 25.9036H17.8079C21.2522 27.2485 23.9964 29.9923 25.3416 33.4365V37.3401C21.7354 37.2655 18.3495 36.7463 15.358 35.8873ZM13.9087 37.3365C12.0322 36.7386 10.3057 36.0071 8.77106 35.163C6.87098 34.118 5.23017 32.8778 3.96996 31.4804C6.17677 39.079 12.1662 45.0685 19.7649 47.2753C18.3675 46.015 17.1272 44.3743 16.0822 42.4741C15.2381 40.9395 14.5066 39.213 13.9087 37.3365ZM25.3416 48.1292C22.4896 47.7279 19.7739 45.4361 17.6657 41.6032C17.0542 40.4915 16.5025 39.2631 16.0216 37.937C18.8881 38.6572 22.037 39.082 25.3416 39.1476V48.1292ZM32.7256 47.2753C34.123 46.015 35.3632 44.3743 36.4084 42.4741C37.2524 40.9395 37.9839 39.213 38.5817 37.3365C40.4582 36.7386 42.1847 36.0071 43.7195 35.163C45.6195 34.118 47.2604 32.8778 48.5205 31.4804C46.3137 39.079 40.3242 45.0685 32.7256 47.2753ZM36.4689 37.937C35.988 39.2631 35.4362 40.4915 34.8247 41.6032C32.7167 45.4361 30.001 47.7279 27.1489 48.1292V39.1476C30.4535 39.082 33.6024 38.6572 36.4689 37.937ZM39.1822 35.2236C40.5084 34.7427 41.7367 34.191 42.8485 33.5795C46.6814 31.4714 48.9731 28.7558 49.3745 25.9036H40.3929C40.3272 29.2083 39.9025 32.3571 39.1822 35.2236ZM38.5854 25.9036C38.5107 29.51 37.9915 32.8958 37.1325 35.8873C34.141 36.7463 30.7552 37.2655 27.1489 37.3401V33.4394C28.4937 29.9939 31.2384 27.2489 34.6837 25.9036H38.5854ZM40.3929 24.0964H49.3745C48.9731 21.2442 46.6814 18.5285 42.8485 16.4205C41.7367 15.809 40.5084 15.2572 39.1822 14.7764C39.9025 17.6429 40.3272 20.7917 40.3929 24.0964ZM37.1325 14.1128C37.9915 17.1042 38.5107 20.49 38.5854 24.0964H34.6837C31.2384 22.7511 28.4937 20.0061 27.1489 16.5606V12.6599C30.7552 12.7345 34.141 13.2537 37.1325 14.1128ZM38.5817 12.6635C40.4582 13.2614 42.1847 13.9929 43.7195 14.837C45.6195 15.882 47.2604 17.1222 48.5205 18.5196C46.3137 10.921 40.3242 4.93154 32.7256 2.72471C34.123 3.98494 35.3632 5.62574 36.4084 7.52581C37.2524 9.0605 37.9839 10.787 38.5817 12.6635ZM27.1489 1.87074C30.001 2.27211 32.7167 4.56385 34.8247 8.39675C35.4362 9.50855 35.988 10.7368 36.4689 12.0631C33.6024 11.3427 30.4535 10.918 27.1489 10.8523V1.87074Z" fill="#B0A59E"/>
</svg>
